<svg height="758" viewBox="0 0 503 758" width="503" xmlns="http://www.w3.org/2000/svg" xmlns:xlink="http://www.w3.org/1999/xlink"><clipPath id="a"><path d="m614 1607.041h503v758h-503z"/></clipPath><g clip-path="url(#a)" transform="translate(-614 -1607.041)"><path d="m2847.877 2360.4c8.1-8.092 22.479-8.092 30.572 0l89.145 88.847 77.215-76.97-162.8-241.794c-8.036-11.925-27.864-11.925-35.906 0l-166.316 247.03 75.464 75.235z" fill="#62a87c" transform="translate(-1746.105 -514.836)"/><path d="m3666.186 2572.617-292.637-434.632-86.494 86.213a21.614 21.614 0 0 1 -30.553 0l-89.14-88.847-92.628 92.345a21.68 21.68 0 0 1 -30.571 0l-84.74-84.458-291.435 432.862a21.529 21.529 0 0 0 17.948 33.557h964.634a2.1 2.1 0 0 1 .58 0 21.533 21.533 0 0 0 15.036-37.038z" fill="#003b57" transform="translate(-2050.305 -244.081)"/></g></svg>