<?xml version="1.0" encoding="utf-8"?>
<!-- Generator: Adobe Illustrator 26.0.3, SVG Export Plug-In . SVG Version: 6.00 Build 0)  -->
<svg version="1.1" id="Layer_1" xmlns="http://www.w3.org/2000/svg" xmlns:xlink="http://www.w3.org/1999/xlink" x="0px" y="0px"
	 viewBox="0 0 612 612" style="enable-background:new 0 0 612 612;" xml:space="preserve">
<g>
	<path d="M516.4,382.5h-38.2c-10.6,0-19.1,8.6-19.1,19.1v133.9H76.5V153h172.1c10.6,0,19.1-8.6,19.1-19.1V95.6
		c0-10.6-8.6-19.1-19.1-19.1H57.4C25.7,76.5,0,102.2,0,133.9v420.8C0,586.3,25.7,612,57.4,612l0,0h420.8c31.7,0,57.4-25.7,57.4-57.4
		l0,0v-153C535.5,391.1,526.9,382.5,516.4,382.5z"/>
	<path d="M583.3,0h-153C404.8,0,392,31,410,49l42.7,42.7L161.4,382.9c-11.2,11.2-11.3,29.3-0.1,40.6c0,0,0,0,0.1,0.1l27.1,27
		c11.2,11.2,29.3,11.3,40.6,0.1c0,0,0,0,0.1-0.1l291.2-291.3L563,202c17.9,17.9,49,5.4,49-20.3v-153C612,12.8,599.2,0,583.3,0z"/>
</g>
</svg>
