<svg height="36.855" viewBox="0 0 48.818 36.855" width="48.818" xmlns="http://www.w3.org/2000/svg"><g transform="translate(-2664.309 -2121.533)"><path d="m2687.921 2133.133a1.076 1.076 0 0 1 1.48 0l4.315 4.315 3.738-3.738-7.881-11.743a1.087 1.087 0 0 0 -1.738 0l-8.051 12 3.653 3.654z" fill="#cdd3d6"/><path d="m2712.808 2156.589-14.166-21.108-4.187 4.187a1.044 1.044 0 0 1 -1.479 0l-4.315-4.315-4.484 4.485a1.047 1.047 0 0 1 -1.48 0l-4.1-4.1-14.108 21.022a1.046 1.046 0 0 0 .869 1.63h46.7a.09.09 0 0 1 .028 0 1.047 1.047 0 0 0 .728-1.8z" fill="#3ea261"/><path d="m2700.2 2132.444a1.046 1.046 0 0 0 -1.48 0l-1.265 1.266-3.738 3.738-4.315-4.315a1.076 1.076 0 0 0 -1.48 0l-4.484 4.485-3.653-3.654-1.522-1.521a1.047 1.047 0 0 0 -1.48 1.48l1.813 1.813 4.1 4.1a1.047 1.047 0 0 0 1.48 0l4.484-4.485 4.315 4.315a1.044 1.044 0 0 0 1.479 0l4.187-4.187 1.557-1.557a1.046 1.046 0 0 0 .002-1.478z" fill="#fff"/></g></svg>