<svg xmlns="http://www.w3.org/2000/svg" xmlns:xlink="http://www.w3.org/1999/xlink" width="168" height="168" viewBox="0 0 168 168">
  <defs>
    <clipPath id="clip-path">
      <circle id="Ellipse_41" data-name="Ellipse 41" cx="84" cy="84" r="84" transform="translate(738 2362)" fill="#fff" stroke="#707070" stroke-width="1"/>
    </clipPath>
  </defs>
  <g id="Mask_Group_43" data-name="Mask Group 43" transform="translate(-738 -2362)" clip-path="url(#clip-path)">
    <circle id="Ellipse_42" data-name="Ellipse 42" cx="84" cy="84" r="84" transform="translate(738 2362)" fill="#fff"/>
    <g id="imarket-logo" transform="translate(770.831 2416.681)">
      <g id="Group_587" data-name="Group 587" transform="translate(-3.393 0)">
        <g id="Group_533" data-name="Group 533" transform="translate(18.327 7.125)">
          <path id="Path_2348" data-name="Path 2348" d="M2184.156-1486.887h-1.184l-.031.053a8.17,8.17,0,0,1-2.26,2.46,7.227,7.227,0,0,1-2,.709l-.062.01-.6,1.682h1.432l-2.812,7.719-.039.151a3.046,3.046,0,0,0-.141,1.3c.238,1.321,2.057,1.591,2.531,1.591a6.815,6.815,0,0,0,3.987-1.486l.022-.019.3-.811-.18.03a22.232,22.232,0,0,1-2.584.287c-.444,0-.949-.167-1.008-.539a1.955,1.955,0,0,1,.106-.77l2.765-7.455h3.619l.624-1.694h-3.645Z" transform="translate(-2101.119 1490.588)" fill="#052a7f"/>
          <path id="Path_2349" data-name="Path 2349" d="M2101.523-1476.376l-.038.135h.77l1.378-3.786H2102.6a9.486,9.486,0,0,0-5.1,1.477l.429-1.192h-4.951l-.229.629.1.037c.068.025,1.651.637.938,2.691v0l-3.21,8.789h4.964l.23-.63-.1-.036c-.068-.024-1.652-.628-.939-2.688l.978-2.664c.609-1.571,1.139-3.538,3.034-3.982l.027-.006a3.478,3.478,0,0,1,2.6.135A1.116,1.116,0,0,1,2101.523-1476.376Z" transform="translate(-2051.991 1486.663)" fill="#052a7f"/>
          <path id="Path_2350" data-name="Path 2350" d="M2155.5-1480.072a8.664,8.664,0,0,0-5.873,1.966,8.075,8.075,0,0,0-2.709,3.9,5.348,5.348,0,0,0,.8,5.222,5.314,5.314,0,0,0,4.024,1.721,8.656,8.656,0,0,0,5.256-1.571l.025-.02.3-.851-.193.048a19.253,19.253,0,0,1-4.218.468,2.745,2.745,0,0,1-2.568-1.116c-.48-.843-.269-2.036.181-3.37h8.238l.026-.073a9.568,9.568,0,0,0,.573-3.1,2.943,2.943,0,0,0-.49-1.748A3.939,3.939,0,0,0,2155.5-1480.072Zm-.484,2.168a1.75,1.75,0,0,1,1.515.594,2.178,2.178,0,0,1,.157,1.73h-5.266A4.53,4.53,0,0,1,2155.013-1477.9Z" transform="translate(-2084.034 1486.688)" fill="#052a7f"/>
          <path id="Path_2351" data-name="Path 2351" d="M2127.134-1478.112c-.008-.015-.02-.03-.029-.045l-3.434-5.7,3.94-2.942a8.06,8.06,0,0,1,2.733-1.086l.061-.011.245-.66h-2.806v0h-1.615l-4.824,3.6,3.83-10.484H2117.7l-.23.63.1.036.047.011c.548.107,2.807.536,3.379,1.54a1.329,1.329,0,0,1,.079,1.14l-.006.021-5.717,15.651h5.393l.193-.53.032-.105-.1-.034a2.369,2.369,0,0,1-1.336-1.082,2.026,2.026,0,0,1-.023-1.6l1.061-2.908h.088l3.692,6.194.029.056h.216v0h4.159l.192-.53.033-.105-.1-.034C2128.718-1477.131,2127.508-1477.415,2127.134-1478.112Z" transform="translate(-2066.17 1495.482)" fill="#052a7f"/>
          <path id="Path_2352" data-name="Path 2352" d="M2023.342-1480.09l4.5-12.328a4.331,4.331,0,0,1,3.748-2.442l.229-.673h-7.292l-9.7,11.748-2.679-11.751h-2.3v0h-2.628l-.183.541a2.48,2.48,0,0,1,1.453,3.33h.006L2004.651-1481h0a6.084,6.084,0,0,1-4.043,3.807l-.21.618h3.661v0h1.88l4.257-11.789,2.134,9.192h2.288l8.8-10.31-3.69,10.236-1.011,2.67h2.158v0h3.915l.21-.618A2.7,2.7,0,0,1,2023.342-1480.09Z" transform="translate(-2000.398 1495.537)" fill="#052a7f"/>
          <path id="Path_2353" data-name="Path 2353" d="M2069.676-1480.03l-4.9-.005-1.408,3.579h.82l.035-.042c.987-2.113,2.706-1.8,4.866-1.8,1.226,0,1.707.806,1.583,1.208-.065.207-.218.566-.36.927-.18.41-.772.69-1.595.69-5.324,0-7.142,1.452-8.084,4.779-.445,1.573.052,3.407,3.177,3.407a9.274,9.274,0,0,0,3.655-1.068l.477.754h4.477l.253-.644-.106-.037a1.932,1.932,0,0,1-.984-2.753l1.982-5.4.083-.266a2.268,2.268,0,0,0,.14-1.437C2073.605-1478.693,2072.841-1479.971,2069.676-1480.03Zm-1.87,6.306a12.586,12.586,0,0,0,1.68-.13c-.208.5-.353,1.089-.863,2.211a4.568,4.568,0,0,1-3.375,1.874c-1.083,0-2.071-.355-1.715-1.429C2064.031-1472.7,2064.36-1473.738,2067.805-1473.723Z" transform="translate(-2034.782 1486.667)" fill="#052a7f"/>
        </g>
        <g id="Group_539" data-name="Group 539" transform="translate(0 29.755)">
          <g id="Group_534" data-name="Group 534" transform="translate(17.236 6.595)">
            <path id="Path_2354" data-name="Path 2354" d="M2258.161-1474.883a7.672,7.672,0,0,1-.75,2.85,8.308,8.308,0,0,1-1.823,2.484,8.7,8.7,0,0,1-2.661,1.718,8.417,8.417,0,0,1-3.252.621,6.28,6.28,0,0,1-2.971-.665,4.456,4.456,0,0,1-1.905-1.87,5.062,5.062,0,0,1-.55-2.74,7.305,7.305,0,0,1,1.3-3.712,8.633,8.633,0,0,1,3.113-2.792,8.5,8.5,0,0,1,4.089-1.038,6.137,6.137,0,0,1,3.056.709,4.4,4.4,0,0,1,1.844,1.893A4.96,4.96,0,0,1,2258.161-1474.883Zm-3.471-.722a2.377,2.377,0,0,0-.506-1.739,2.035,2.035,0,0,0-1.676-.583,3.3,3.3,0,0,0-1.984.739,6.213,6.213,0,0,0-1.5,1.739,10.273,10.273,0,0,0-.944,2.075,6.9,6.9,0,0,0-.364,1.786,2.337,2.337,0,0,0,.5,1.674,1.875,1.875,0,0,0,1.581.6,3.564,3.564,0,0,0,2.072-.73,5.975,5.975,0,0,0,1.536-1.728,9.368,9.368,0,0,0,.937-2.094A7.285,7.285,0,0,0,2254.69-1475.605Z" transform="translate(-2244.238 1480.027)" fill="#052a7f"/>
          </g>
          <g id="Group_535" data-name="Group 535" transform="translate(67.083 6.595)">
            <path id="Path_2355" data-name="Path 2355" d="M2374.672-1474.883a7.668,7.668,0,0,1-.75,2.85,8.283,8.283,0,0,1-1.823,2.484,8.7,8.7,0,0,1-2.66,1.718,8.424,8.424,0,0,1-3.254.621,6.277,6.277,0,0,1-2.97-.665,4.454,4.454,0,0,1-1.9-1.87,5.069,5.069,0,0,1-.551-2.74,7.321,7.321,0,0,1,1.3-3.712,8.652,8.652,0,0,1,3.114-2.792,8.5,8.5,0,0,1,4.088-1.038,6.134,6.134,0,0,1,3.055.709,4.4,4.4,0,0,1,1.845,1.893A4.95,4.95,0,0,1,2374.672-1474.883Zm-3.47-.722a2.384,2.384,0,0,0-.506-1.739,2.035,2.035,0,0,0-1.675-.583,3.3,3.3,0,0,0-1.985.739,6.2,6.2,0,0,0-1.5,1.739,10.251,10.251,0,0,0-.944,2.075,6.884,6.884,0,0,0-.363,1.786,2.337,2.337,0,0,0,.5,1.674,1.874,1.874,0,0,0,1.58.6,3.561,3.561,0,0,0,2.072-.73,5.964,5.964,0,0,0,1.536-1.728,9.412,9.412,0,0,0,.937-2.094A7.249,7.249,0,0,0,2371.2-1475.605Z" transform="translate(-2360.749 1480.027)" fill="#052a7f"/>
          </g>
          <path id="Path_2356" data-name="Path 2356" d="M2278.875-1478.164a2.028,2.028,0,0,1-.02-1.605l.049-.141h-.014l5.673-15.531h-7.535l-.23.63.1.036.046.011c.548.107,2.807.536,3.381,1.54a1.333,1.333,0,0,1,.079,1.14l-.007.021-5.717,15.651h5.412l.193-.53.033-.105-.105-.034A2.373,2.373,0,0,1,2278.875-1478.164Z" transform="translate(-2244.419 1495.441)" fill="#052a7f"/>
          <path id="Path_2357" data-name="Path 2357" d="M2222.027-1489.383l2.182-6.02H2217.7l.018.009a8.974,8.974,0,0,0-7.335,3.616,3.745,3.745,0,0,0-.249,4.268,4.029,4.029,0,0,0,.8.941l.313.231c.32.232.65.473,1.006.688.679.457,1.434.892,2.167,1.315.568.439,2.794,1.746,2.316,3.462-.565,2.026-2.843,3.029-5.726,2.512-3.395-.609-3.692-4.56-3.692-4.56h-1.042l-2.326,6.423h6.563l0,0,.129,0c6.113,0,8.7-2.207,9.67-5.242.679-2.135-1.005-3.834-2.049-4.549-.755-.518-2.873-1.778-3.548-2.127-.733-.467-2.613-1.348-1.82-3.1.674-1.488,3.271-2.208,5.124-2.05,3.128.267,2.941,2.3,2.531,4.183Z" transform="translate(-2203.949 1495.419)" fill="#052a7f"/>
          <path id="Path_2358" data-name="Path 2358" d="M2328.058-1473.21c-.445,0-.949-.167-1.008-.539a1.943,1.943,0,0,1,.107-.77l2.763-7.455h3.62l.624-1.694h-3.644l1.164-3.22H2330.5l-.031.053a8.185,8.185,0,0,1-2.26,2.46,7.219,7.219,0,0,1-2,.709l-.062.01-.605,1.682h1.432l-2.812,7.719-.038.151a3.035,3.035,0,0,0-.141,1.3c.238,1.321,2.057,1.591,2.532,1.591a6.817,6.817,0,0,0,3.987-1.486l.022-.019.3-.811-.179.03A22.239,22.239,0,0,1,2328.058-1473.21Z" transform="translate(-2272.615 1490.547)" fill="#052a7f"/>
          <path id="Path_2359" data-name="Path 2359" d="M2302.845-1470.554l3.218-8.807h-2.939l-.026.071s-2.467,6.753-2.814,7.708a3.843,3.843,0,0,1-3.369,2.218,1.387,1.387,0,0,1-1.165-.4c-.349-.454-.138-1.247.048-1.946l2.787-7.653h-4.973l-.23.629.1.036c.068.025,1.651.637.938,2.69l-.009.027-1.914,5.255-.015.056c0,.019-.014.051-.025.095l-.013.047a5.458,5.458,0,0,0-.217,1.75,2.214,2.214,0,0,0,1.8,1.729,5.453,5.453,0,0,0,1.336.141,8.408,8.408,0,0,0,3.619-1.084l.574.777h4.106l.229-.63-.1-.037C2303.719-1467.9,2302.144-1468.51,2302.845-1470.554Z" transform="translate(-2254.451 1486.24)" fill="#052a7f"/>
          <path id="Path_2360" data-name="Path 2360" d="M2403.073-1479.937a5.45,5.45,0,0,0-1.337-.141,8.406,8.406,0,0,0-3.619,1.085l.283-.778h-4.962l-.23.63.1.036c.067.025,1.645.626.942,2.677l-3.217,8.807h4.935l.23-.63-.1-.036a1.844,1.844,0,0,1-1.056-2.266c.718-1.966,1.575-4.313,1.769-4.848a3.843,3.843,0,0,1,3.369-2.217,1.387,1.387,0,0,1,1.165.4c.349.454.138,1.247-.047,1.946l-2.788,7.653h4.973l.23-.63-.1-.036c-.068-.024-1.654-.628-.938-2.69l.007-.018,1.917-5.265.014-.054c.005-.024.018-.067.039-.144a5.492,5.492,0,0,0,.218-1.75A2.215,2.215,0,0,0,2403.073-1479.937Z" transform="translate(-2310.993 1486.651)" fill="#052a7f"/>
          <path id="Path_2361" data-name="Path 2361" d="M2434.614-1479.3h-3.9l.02.017a5.474,5.474,0,0,0-3.63,1.591,4.339,4.339,0,0,0-.971,1.531,2.607,2.607,0,0,0,.42,2.776,6.854,6.854,0,0,0,.707.734l1.589,1.229c.467.482.558.7.588,1.012a1.771,1.771,0,0,1-.062.531,2.622,2.622,0,0,1-2.344,1.4,1.565,1.565,0,0,1-1.716-1.6,5.522,5.522,0,0,1,.072-1.235l.081-.621-1.134-.075-1.839,4.687-.066.176h4.434a5.89,5.89,0,0,0,3.372-.844,5.473,5.473,0,0,0,1.972-2.7,2.726,2.726,0,0,0-.553-3.089,3.188,3.188,0,0,0-.479-.444l-2.043-1.517c-.43-.32-.571-.631-.444-.979a2.327,2.327,0,0,1,1.95-1.078,1.963,1.963,0,0,1,1.508.464,1.377,1.377,0,0,1,.151,1.075l-.027.438h1.052l.352-.951,0,0Z" transform="translate(-2328.958 1486.207)" fill="#052a7f"/>
          <g id="Group_538" data-name="Group 538" transform="translate(59.977 2.31)">
            <g id="Group_537" data-name="Group 537" transform="translate(0 4.57)">
              <g id="Group_536" data-name="Group 536">
                <path id="Path_2362" data-name="Path 2362" d="M2348.306-1470.568l.048-.141h-.009l3.161-8.652h-4.948l-.229.629.1.037a1.881,1.881,0,0,1,1.026,2.393l-3.314,9.09h4.974l.23-.63-.1-.036C2349.177-1467.9,2347.59-1468.506,2348.306-1470.568Z" transform="translate(-2344.14 1479.361)" fill="#052a7f"/>
              </g>
            </g>
            <path id="Path_2363" data-name="Path 2363" d="M2358.786-1487.413h-1.853a.367.367,0,0,1-.345-.542l.562-1.544a.858.858,0,0,1,.74-.542h1.853a.367.367,0,0,1,.345.542l-.563,1.544A.857.857,0,0,1,2358.786-1487.413Z" transform="translate(-2351.242 1490.042)" fill="#052a7f"/>
          </g>
        </g>
        <g id="Group_540" data-name="Group 540" transform="translate(5.11)">
          <path id="Path_2364" data-name="Path 2364" d="M1979.581-1495.53h-5.389l2.029,1.008a2.92,2.92,0,0,1,1.621,3.764l-3.181,8.725h0l-.085.22a8.628,8.628,0,0,1-4.651,4.561l-.2.056-.222.619h10.926l.228-.619-.156-.056c-.106-.039-2.448-1.344-1.331-4.561l.076-.22h-.013l4.931-13.5Z" transform="translate(-1969.506 1502.658)" fill="#cd001b"/>
          <path id="Path_2365" data-name="Path 2365" d="M2001.247-1512.192h-2.889a1.34,1.34,0,0,0-1.154.845l-.877,2.41a.572.572,0,0,0,.538.845h2.889a1.339,1.339,0,0,0,1.154-.845l.876-2.41A.572.572,0,0,0,2001.247-1512.192Z" transform="translate(-1984.821 1512.192)" fill="#cd001b"/>
        </g>
      </g>
    </g>
  </g>
</svg>
