<svg width="400" height="400" viewBox="0 0 400 400" fill="none" xmlns="http://www.w3.org/2000/svg">
<path d="M200 320.37C266.479 320.37 320.37 266.479 320.37 200C320.37 133.521 266.479 79.63 200 79.63C133.521 79.63 79.63 133.521 79.63 200C79.63 266.479 133.521 320.37 200 320.37Z" stroke="#191919" stroke-width="12" stroke-miterlimit="10" stroke-linecap="round" stroke-linejoin="round"/>
<path d="M200 350C282.843 350 350 282.843 350 200C350 117.157 282.843 50 200 50C117.157 50 50 117.157 50 200C50 282.843 117.157 350 200 350Z" stroke="#191919" stroke-width="12" stroke-miterlimit="10" stroke-linecap="round" stroke-linejoin="round"/>
<path d="M220.35 220.35L142.6 257.4L179.65 179.65L257.4 142.6L220.35 220.35Z" stroke="#6A0BFF" stroke-width="12" stroke-miterlimit="10" stroke-linecap="round" stroke-linejoin="round"/>
<path d="M179.65 179.65L220.35 220.35" stroke="#6A0BFF" stroke-width="12" stroke-miterlimit="10" stroke-linecap="round" stroke-linejoin="round"/>
</svg>
