<svg height="667.158" viewBox="0 0 879 667.158" width="879" xmlns="http://www.w3.org/2000/svg"><g transform="translate(-326.83 -294.802)"><g fill="#fff" opacity="0" stroke="#707070"><path d="m326.83 294.801h879v640h-879z" stroke="none"/><path d="m327.33 295.301h878v639h-878z" fill="none"/></g><path d="m183 0 5.5 145.394 94.454-119.713-85.207 124.914 153.427-56.023-148.86 64.775 163.686 25.453-165.25-15.93 121.975 98.848-129.175-91.578 41.537 140.86-52.087-138.149-52.087 138.149 41.537-140.86-129.174 91.578 121.974-98.849-165.25 15.931 163.685-25.453-148.859-64.775 153.427 56.023-85.208-124.914 94.455 119.713z" fill="#f49f0a" transform="translate(326.83 303.801)"/><ellipse cx="773.33" cy="803.301" fill="#62a87c" rx="309.5" ry="85.5"/><path d="m8.38 0v-276.54h65.364v276.54zm10.894 0v-54.47h117.739v54.47zm198.187 5.028q-28.073 0-45.252-13.408t-24.931-38.967q-7.751-25.559-7.751-62.431 0-41.062 8.8-66.831t26.4-37.71q17.6-11.942 43.576-11.942 28.492 0 45.881 11.942t25.349 37.081q7.961 25.14 7.961 65.783t-8.8 66.412q-8.8 25.769-26.4 37.919t-44.833 12.152zm.838-46.509a8.141 8.141 0 0 0 6.494-3.352q2.724-3.352 4.4-10.894a125.393 125.393 0 0 0 2.3-20.112q.628-12.57.628-30.587 0-20.112-.628-34.148a160.238 160.238 0 0 0 -2.3-22.626q-1.676-8.59-4.4-12.361t-6.494-3.771q-3.771 0-6.494 3.771t-4.19 12.361a191.89 191.89 0 0 0 -2.1 22.835q-.629 14.246-.629 34.777 0 18.017.629 30.168a146.719 146.719 0 0 0 2.1 19.693q1.466 7.542 4.19 10.894a8.141 8.141 0 0 0 6.495 3.352zm157.544 101.4q-24.3 0-39.805-5.238t-23.045-14.876q-7.542-9.637-7.542-23.045 0-18.436 12.779-28.492t33.73-11.732v-3.352a118.2 118.2 0 0 1 -25.978-5.866q-11.732-4.19-11.732-16.341 0-11.313 10.266-18.227t29.121-9.427v-3.771q-21.788-5.866-34.568-23.045t-12.78-42.319q0-21.788 9.846-38.758a69.919 69.919 0 0 1 28.283-26.816q18.436-9.847 43.995-9.847h79.61v51.533l-54.47-10.475v3.352q23.883 5.447 35.2 16.55t11.313 27.445q0 14.665-8.38 29.12t-25.144 23.888q-16.76 9.428-41.481 9.428-4.19 0-9.637-.21a28.832 28.832 0 0 1 -9.637-1.885q-5.866 2.933-9.218 5.028t-3.352 4.19q0 1.257 1.676 2.3a12.287 12.287 0 0 0 4.819 1.466 56.2 56.2 0 0 0 7.332.419h31.425q10.056 0 22.836.838a81.144 81.144 0 0 1 24.512 5.447 44.331 44.331 0 0 1 19.483 14.88q7.752 10.265 7.752 29.12 0 23.045-12.361 38.339t-34.149 22.835q-21.788 7.542-50.699 7.542zm3.357-58.243q14.246 0 21.578-1.467t10.056-4.19a8.866 8.866 0 0 0 2.724-6.495q0-5.028-2.724-7.542a17.324 17.324 0 0 0 -7.123-3.771 39.15 39.15 0 0 0 -9.009-1.466q-4.609-.21-7.961-.21h-16.76q-11.732 4.609-16.131 7.961t-4.4 7.542q0 4.19 4.818 6.285a38.176 38.176 0 0 0 11.732 2.725q6.91.628 13.2.628zm4.6-109.776q6.7 0 10.266-8.8t3.561-25.14q0-15.922-3.352-25.768t-10.475-9.848q-6.7 0-10.056 9.427t-3.344 25.769a101.929 101.929 0 0 0 1.466 18.646q1.467 7.752 4.609 11.732t7.325 3.982zm167.6 113.128q-28.073 0-45.252-13.408t-24.927-38.967q-7.751-25.559-7.751-62.431 0-41.062 8.8-66.831t26.4-37.71q17.6-11.942 43.576-11.942 28.492 0 45.88 11.942t25.349 37.081q7.961 25.14 7.961 65.783t-8.8 66.412q-8.8 25.769-26.4 37.919t-44.836 12.152zm.838-46.509a8.141 8.141 0 0 0 6.495-3.352q2.724-3.352 4.4-10.894a125.387 125.387 0 0 0 2.3-20.112q.629-12.57.628-30.587 0-20.112-.628-34.148a160.231 160.231 0 0 0 -2.3-22.626q-1.676-8.59-4.4-12.361t-6.495-3.771q-3.771 0-6.495 3.771t-4.19 12.361a191.9 191.9 0 0 0 -2.095 22.835q-.629 14.246-.629 34.777 0 18.017.629 30.168a146.725 146.725 0 0 0 2.095 19.693q1.466 7.542 4.19 10.894a8.141 8.141 0 0 0 6.499 3.352z" fill="#fffadb" transform="translate(463.831 693.8)"/><path d="m-224.55-20.64a26.679 26.679 0 0 0 -1.485 3.18 24.806 24.806 0 0 0 -.99 3.15 26.566 26.566 0 0 0 -.555 3.075 24.8 24.8 0 0 0 -.18 2.925 23.537 23.537 0 0 0 .39 4.335 23.042 23.042 0 0 0 1.11 3.975 24.773 24.773 0 0 0 1.71 3.6h-3.03a24.37 24.37 0 0 1 -1.785-4.02 22.511 22.511 0 0 1 -.96-4.035 28.919 28.919 0 0 1 -.285-4.035 29.03 29.03 0 0 1 .285-4.02 24.437 24.437 0 0 1 .945-4.095 22 22 0 0 1 1.77-4.035zm10.71 21.03a10.235 10.235 0 0 1 -3.84-.675 7.628 7.628 0 0 1 -2.85-1.965 8.652 8.652 0 0 1 -1.785-3.165 13.592 13.592 0 0 1 -.615-4.245 14.066 14.066 0 0 1 .63-4.365 9.706 9.706 0 0 1 1.8-3.315 7.861 7.861 0 0 1 2.805-2.115 8.867 8.867 0 0 1 3.675-.735 8.972 8.972 0 0 1 2.91.45 7.015 7.015 0 0 1 2.295 1.275 5.722 5.722 0 0 1 1.515 1.995 6.229 6.229 0 0 1 .54 2.64l-2.58.66a4.426 4.426 0 0 0 -.63-2.565 4.288 4.288 0 0 0 -1.74-1.53 5.348 5.348 0 0 0 -2.37-.525 5.739 5.739 0 0 0 -2.265.465 5.25 5.25 0 0 0 -1.935 1.44 7.006 7.006 0 0 0 -1.32 2.49 12.154 12.154 0 0 0 -.48 3.645 10.581 10.581 0 0 0 .78 4.395 5.228 5.228 0 0 0 2.22 2.49 6.778 6.778 0 0 0 3.33.8 5.613 5.613 0 0 0 2.94-.675 4.185 4.185 0 0 0 1.665-1.905 7.635 7.635 0 0 0 .615-2.88l2.49.45a9.746 9.746 0 0 1 -.48 2.91 6.44 6.44 0 0 1 -1.4 2.37 6.514 6.514 0 0 1 -2.41 1.595 9.483 9.483 0 0 1 -3.51.59zm16.23 0a5.311 5.311 0 0 1 -2.04-.36 4.289 4.289 0 0 1 -1.485-1 4.954 4.954 0 0 1 -.99-1.56 9.22 9.22 0 0 1 -.555-2.025 15.015 15.015 0 0 1 -.18-2.4v-8.55h2.76v7.92q0 .93.09 1.9a6.769 6.769 0 0 0 .4 1.8 3 3 0 0 0 .975 1.335 2.874 2.874 0 0 0 1.8.51 3.124 3.124 0 0 0 1.68-.465 4.218 4.218 0 0 0 1.3-1.32 7.663 7.663 0 0 0 .9-2.04 14.941 14.941 0 0 0 .495-2.625v-7.02h2.73v15.51h-2.43l.24-5.13h-.45a9.833 9.833 0 0 1 -1.08 3.15 4.642 4.642 0 0 1 -1.77 1.8 4.95 4.95 0 0 1 -2.39.57zm12.45-.39v-15.51h2.49l-.27 5.55h.48a12.616 12.616 0 0 1 .84-3.15 5.029 5.029 0 0 1 1.53-2.055 3.688 3.688 0 0 1 2.31-.735 4.759 4.759 0 0 1 .72.06 7.042 7.042 0 0 1 .9.21l-.15 2.88a5.131 5.131 0 0 0 -.9-.27 4.434 4.434 0 0 0 -.87-.09 2.9 2.9 0 0 0 -2.025.78 5.889 5.889 0 0 0 -1.41 2.085 16.445 16.445 0 0 0 -.915 2.985v7.26zm11.82 0v-15.51h2.49l-.27 5.55h.48a12.616 12.616 0 0 1 .84-3.15 5.029 5.029 0 0 1 1.53-2.055 3.688 3.688 0 0 1 2.31-.735 4.759 4.759 0 0 1 .72.06 7.042 7.042 0 0 1 .9.21l-.15 2.88a5.131 5.131 0 0 0 -.9-.27 4.434 4.434 0 0 0 -.87-.09 2.9 2.9 0 0 0 -2.025.78 5.889 5.889 0 0 0 -1.41 2.085 16.445 16.445 0 0 0 -.915 2.985v7.26zm18.21.39a8.771 8.771 0 0 1 -3.255-.555 6.156 6.156 0 0 1 -2.34-1.6 7.122 7.122 0 0 1 -1.44-2.505 9.965 9.965 0 0 1 -.495-3.23 11.181 11.181 0 0 1 .48-3.36 7.761 7.761 0 0 1 1.41-2.655 6.464 6.464 0 0 1 2.28-1.755 7.228 7.228 0 0 1 3.09-.63 7.156 7.156 0 0 1 2.805.525 5.6 5.6 0 0 1 2.13 1.575 6.988 6.988 0 0 1 1.335 2.64 12.005 12.005 0 0 1 .36 3.75l-12.15.09v-1.86l10.44-.09-.9 1.26a6.835 6.835 0 0 0 -.345-3.09 3.91 3.91 0 0 0 -1.44-1.86 3.935 3.935 0 0 0 -2.235-.63 4.123 4.123 0 0 0 -2.415.72 4.64 4.64 0 0 0 -1.6 2.07 8.4 8.4 0 0 0 -.57 3.27 6.311 6.311 0 0 0 1.245 4.215 4.532 4.532 0 0 0 3.64 1.455 5.178 5.178 0 0 0 1.665-.24 3.817 3.817 0 0 0 1.2-.645 3.4 3.4 0 0 0 .81-.96 4.5 4.5 0 0 0 .465-1.185l2.43.51a6.961 6.961 0 0 1 -.81 2 5.289 5.289 0 0 1 -1.365 1.5 6.125 6.125 0 0 1 -1.935.94 8.728 8.728 0 0 1 -2.49.33zm10.11-.39v-15.51h2.49l-.3 5.1h.48a10.351 10.351 0 0 1 1.155-3.165 4.556 4.556 0 0 1 1.83-1.77 5.4 5.4 0 0 1 2.475-.555 5.03 5.03 0 0 1 2.235.45 4.243 4.243 0 0 1 1.5 1.2 5.845 5.845 0 0 1 .915 1.71 10.146 10.146 0 0 1 .465 2.01 16.219 16.219 0 0 1 .135 2.07v8.46h-2.76v-8.07q0-.66-.075-1.56a7.26 7.26 0 0 0 -.375-1.77 3.488 3.488 0 0 0 -.96-1.47 2.621 2.621 0 0 0 -1.83-.6 3.5 3.5 0 0 0 -2.445.915 6.008 6.008 0 0 0 -1.56 2.43 11.218 11.218 0 0 0 -.645 3.315v6.81zm22.5.3a5.459 5.459 0 0 1 -1.845-.285 3.3 3.3 0 0 1 -1.335-.87 3.736 3.736 0 0 1 -.81-1.47 7.3 7.3 0 0 1 -.27-2.115v-8.79h-2.28l.03-2.25h1.38a1.969 1.969 0 0 0 1.125-.3 1.4 1.4 0 0 0 .435-.96l.27-2.25h1.71v3.48h4.41v2.34h-4.41v8.67a2.205 2.205 0 0 0 .585 1.755 2.311 2.311 0 0 0 1.545.495 4.815 4.815 0 0 0 1.17-.15 3.642 3.642 0 0 0 1.2-.57v2.73a9.046 9.046 0 0 1 -1.575.42 8.351 8.351 0 0 1 -1.335.12zm6.18-.3v-20.94h2.73v20.94zm12.63 5.16a10.166 10.166 0 0 1 -2.385-.285 8.231 8.231 0 0 1 -2.16-.84 5.186 5.186 0 0 1 -1.635-1.455l1.38-2.01a4.354 4.354 0 0 0 1.95 1.56 6.857 6.857 0 0 0 2.73.54 5.267 5.267 0 0 0 2.37-.48 4.1 4.1 0 0 0 1.575-1.38 6.223 6.223 0 0 0 .9-2.19 13.539 13.539 0 0 0 .285-2.91l.3-3.03h-.51a10.748 10.748 0 0 1 -1.05 3.51 4.671 4.671 0 0 1 -1.755 1.905 4.763 4.763 0 0 1 -2.385.585 4.625 4.625 0 0 1 -2.505-.615 4.609 4.609 0 0 1 -1.53-1.545 6.8 6.8 0 0 1 -.795-1.98 12.544 12.544 0 0 1 -.3-1.95q-.06-.9-.06-1.41v-6.69h2.73v5.94q0 .51.015 1.245a8.372 8.372 0 0 0 .18 1.53 6.057 6.057 0 0 0 .51 1.485 2.946 2.946 0 0 0 .975 1.125 2.791 2.791 0 0 0 1.62.435 2.89 2.89 0 0 0 1.725-.525 4.2 4.2 0 0 0 1.245-1.485 8.489 8.489 0 0 0 .78-2.25 19.338 19.338 0 0 0 .36-2.82v-4.68h2.73v11.37a22.052 22.052 0 0 1 -.12 2.31 11.963 11.963 0 0 1 -.435 2.19 7.956 7.956 0 0 1 -.855 1.92 5.905 5.905 0 0 1 -1.35 1.515 6.039 6.039 0 0 1 -1.92 1 8.484 8.484 0 0 1 -2.61.365zm20.58-5.16v-10.92h-2.73v-2.16l3.9.24v-.51a3.646 3.646 0 0 1 -1.335-.825 3.334 3.334 0 0 1 -.78-1.215 4.3 4.3 0 0 1 -.255-1.5 4.214 4.214 0 0 1 .555-2.175 3.872 3.872 0 0 1 1.59-1.485 5.288 5.288 0 0 1 2.475-.54 6.288 6.288 0 0 1 2.055.315 4.69 4.69 0 0 1 1.545.855l-.33 2.55a4.783 4.783 0 0 0 -1.41-.87 4.265 4.265 0 0 0 -1.62-.33 2.2 2.2 0 0 0 -1.65.645 2.667 2.667 0 0 0 -.63 1.935 3.269 3.269 0 0 0 .24 1.305 2.956 2.956 0 0 0 .615.93 3.319 3.319 0 0 0 .765.585h3.75l-.03 2.25h-4.02v10.92zm16.41.39a7.806 7.806 0 0 1 -3.915-.96 6.691 6.691 0 0 1 -2.655-2.79 9.527 9.527 0 0 1 -.96-4.47 9.047 9.047 0 0 1 1-4.485 6.671 6.671 0 0 1 2.69-2.685 7.877 7.877 0 0 1 3.78-.9 7.72 7.72 0 0 1 3.825.945 6.8 6.8 0 0 1 2.685 2.755 9.267 9.267 0 0 1 .99 4.485 9.365 9.365 0 0 1 -.975 4.5 6.439 6.439 0 0 1 -2.67 2.7 7.965 7.965 0 0 1 -3.795.905zm.09-2.25a4.854 4.854 0 0 0 1.62-.285 4.03 4.03 0 0 0 1.485-.945 4.815 4.815 0 0 0 1.1-1.77 7.857 7.857 0 0 0 .42-2.76 7.959 7.959 0 0 0 -.435-2.82 5.019 5.019 0 0 0 -1.14-1.83 4.36 4.36 0 0 0 -1.575-1 5 5 0 0 0 -1.71-.315 4.772 4.772 0 0 0 -1.59.285 4.262 4.262 0 0 0 -1.5.93 4.58 4.58 0 0 0 -1.11 1.74 7.73 7.73 0 0 0 -.42 2.745 8.35 8.35 0 0 0 .42 2.835 5 5 0 0 0 1.125 1.86 4.272 4.272 0 0 0 1.575 1.02 5.081 5.081 0 0 0 1.735.31zm11.13 1.86v-15.51h2.49l-.27 5.55h.48a12.616 12.616 0 0 1 .84-3.15 5.029 5.029 0 0 1 1.53-2.055 3.688 3.688 0 0 1 2.31-.735 4.759 4.759 0 0 1 .72.06 7.042 7.042 0 0 1 .9.21l-.15 2.88a5.131 5.131 0 0 0 -.9-.27 4.434 4.434 0 0 0 -.87-.09 2.9 2.9 0 0 0 -2.025.78 5.89 5.89 0 0 0 -1.41 2.085 16.446 16.446 0 0 0 -.915 2.985v7.26zm24.72 0-6.84-19.8h3l5.67 17.37h.3l5.73-17.37h2.94l-6.9 19.8zm19.17.39a8.771 8.771 0 0 1 -3.255-.555 6.156 6.156 0 0 1 -2.34-1.6 7.122 7.122 0 0 1 -1.44-2.505 9.965 9.965 0 0 1 -.5-3.225 11.18 11.18 0 0 1 .48-3.36 7.762 7.762 0 0 1 1.41-2.655 6.464 6.464 0 0 1 2.28-1.755 7.228 7.228 0 0 1 3.09-.63 7.156 7.156 0 0 1 2.8.525 5.6 5.6 0 0 1 2.14 1.57 6.989 6.989 0 0 1 1.335 2.64 12.005 12.005 0 0 1 .36 3.75l-12.15.09v-1.86l10.44-.09-.9 1.26a6.835 6.835 0 0 0 -.34-3.09 3.91 3.91 0 0 0 -1.44-1.86 3.935 3.935 0 0 0 -2.235-.63 4.123 4.123 0 0 0 -2.415.72 4.64 4.64 0 0 0 -1.61 2.07 8.4 8.4 0 0 0 -.57 3.27 6.311 6.311 0 0 0 1.245 4.215 4.532 4.532 0 0 0 3.645 1.455 5.178 5.178 0 0 0 1.665-.24 3.816 3.816 0 0 0 1.2-.645 3.4 3.4 0 0 0 .81-.96 4.5 4.5 0 0 0 .465-1.185l2.43.51a6.961 6.961 0 0 1 -.81 2 5.289 5.289 0 0 1 -1.365 1.5 6.125 6.125 0 0 1 -1.935.94 8.728 8.728 0 0 1 -2.49.33zm10.11-.39v-15.51h2.49l-.27 5.55h.48a12.616 12.616 0 0 1 .84-3.15 5.029 5.029 0 0 1 1.53-2.055 3.688 3.688 0 0 1 2.31-.735 4.759 4.759 0 0 1 .72.06 7.042 7.042 0 0 1 .9.21l-.15 2.88a5.131 5.131 0 0 0 -.9-.27 4.434 4.434 0 0 0 -.87-.09 2.9 2.9 0 0 0 -2.025.78 5.89 5.89 0 0 0 -1.41 2.085 16.445 16.445 0 0 0 -.915 2.985v7.26zm11.82 0v-15.51h2.43l-.27 5.1h.48a11.364 11.364 0 0 1 1.05-3.075 4.645 4.645 0 0 1 1.65-1.815 4.255 4.255 0 0 1 2.25-.6 4.19 4.19 0 0 1 1.95.42 3.668 3.668 0 0 1 1.34 1.17 5.554 5.554 0 0 1 .8 1.74 7.95 7.95 0 0 1 .27 2.1h.45a8.962 8.962 0 0 1 .99-3 4.875 4.875 0 0 1 1.725-1.815 4.521 4.521 0 0 1 2.345-.615 4.243 4.243 0 0 1 2.325.585 4.137 4.137 0 0 1 1.425 1.515 7.757 7.757 0 0 1 .75 1.935 11.523 11.523 0 0 1 .3 1.9q.06.9.06 1.41v8.555h-2.73v-8.07q0-.63-.06-1.53a7.2 7.2 0 0 0 -.345-1.77 3.607 3.607 0 0 0 -.87-1.455 2.252 2.252 0 0 0 -1.665-.585 2.938 2.938 0 0 0 -2 .78 5.59 5.59 0 0 0 -1.44 2.175 11.185 11.185 0 0 0 -.7 3.225v7.23h-2.7v-7.62q0-.66-.045-1.62a8.552 8.552 0 0 0 -.315-1.92 3.837 3.837 0 0 0 -.87-1.605 2.26 2.26 0 0 0 -1.74-.645 2.869 2.869 0 0 0 -2.04.825 5.805 5.805 0 0 0 -1.4 2.25 12.261 12.261 0 0 0 -.67 3.225v7.11zm33.39.39a7.806 7.806 0 0 1 -3.915-.96 6.691 6.691 0 0 1 -2.655-2.79 9.527 9.527 0 0 1 -.96-4.47 9.047 9.047 0 0 1 1-4.485 6.671 6.671 0 0 1 2.69-2.685 7.877 7.877 0 0 1 3.78-.9 7.72 7.72 0 0 1 3.825.945 6.8 6.8 0 0 1 2.685 2.755 9.267 9.267 0 0 1 .99 4.485 9.365 9.365 0 0 1 -.975 4.5 6.439 6.439 0 0 1 -2.675 2.705 7.965 7.965 0 0 1 -3.79.9zm.09-2.25a4.854 4.854 0 0 0 1.62-.285 4.03 4.03 0 0 0 1.48-.945 4.815 4.815 0 0 0 1.1-1.77 7.857 7.857 0 0 0 .42-2.76 7.959 7.959 0 0 0 -.435-2.82 5.019 5.019 0 0 0 -1.14-1.83 4.36 4.36 0 0 0 -1.575-1 5 5 0 0 0 -1.71-.315 4.772 4.772 0 0 0 -1.59.285 4.262 4.262 0 0 0 -1.5.93 4.579 4.579 0 0 0 -1.11 1.74 7.73 7.73 0 0 0 -.42 2.745 8.349 8.349 0 0 0 .42 2.835 5 5 0 0 0 1.125 1.86 4.272 4.272 0 0 0 1.575 1.02 5.081 5.081 0 0 0 1.74.31zm11.13 1.86v-15.51h2.49l-.3 5.1h.48a10.351 10.351 0 0 1 1.155-3.165 4.556 4.556 0 0 1 1.83-1.77 5.4 5.4 0 0 1 2.475-.555 5.03 5.03 0 0 1 2.235.45 4.243 4.243 0 0 1 1.5 1.2 5.845 5.845 0 0 1 .915 1.71 10.147 10.147 0 0 1 .465 2.01 16.221 16.221 0 0 1 .135 2.07v8.46h-2.76v-8.07q0-.66-.075-1.56a7.259 7.259 0 0 0 -.375-1.77 3.488 3.488 0 0 0 -.96-1.47 2.621 2.621 0 0 0 -1.83-.6 3.5 3.5 0 0 0 -2.445.915 6.008 6.008 0 0 0 -1.56 2.43 11.218 11.218 0 0 0 -.645 3.315v6.81zm22.5.3a5.459 5.459 0 0 1 -1.845-.285 3.3 3.3 0 0 1 -1.335-.87 3.736 3.736 0 0 1 -.81-1.47 7.3 7.3 0 0 1 -.27-2.115v-8.79h-2.28l.03-2.25h1.38a1.969 1.969 0 0 0 1.125-.3 1.4 1.4 0 0 0 .435-.96l.27-2.25h1.71v3.48h4.41v2.34h-4.41v8.67a2.205 2.205 0 0 0 .585 1.755 2.311 2.311 0 0 0 1.545.495 4.815 4.815 0 0 0 1.17-.15 3.642 3.642 0 0 0 1.2-.57v2.73a9.046 9.046 0 0 1 -1.575.42 8.351 8.351 0 0 1 -1.335.12zm14.94-.3v-10.92h-2.73v-2.16l3.9.24v-.51a3.646 3.646 0 0 1 -1.335-.825 3.334 3.334 0 0 1 -.78-1.215 4.3 4.3 0 0 1 -.255-1.5 4.214 4.214 0 0 1 .555-2.175 3.872 3.872 0 0 1 1.59-1.485 5.288 5.288 0 0 1 2.475-.54 6.288 6.288 0 0 1 2.055.315 4.69 4.69 0 0 1 1.545.855l-.33 2.55a4.783 4.783 0 0 0 -1.41-.87 4.265 4.265 0 0 0 -1.62-.33 2.2 2.2 0 0 0 -1.65.645 2.667 2.667 0 0 0 -.63 1.935 3.269 3.269 0 0 0 .24 1.305 2.956 2.956 0 0 0 .615.93 3.319 3.319 0 0 0 .765.585h3.75l-.03 2.25h-4.02v10.92zm16.41.39a7.806 7.806 0 0 1 -3.915-.96 6.691 6.691 0 0 1 -2.655-2.79 9.527 9.527 0 0 1 -.96-4.47 9.047 9.047 0 0 1 1-4.485 6.671 6.671 0 0 1 2.69-2.685 7.877 7.877 0 0 1 3.78-.9 7.72 7.72 0 0 1 3.825.945 6.8 6.8 0 0 1 2.685 2.76 9.267 9.267 0 0 1 .99 4.485 9.365 9.365 0 0 1 -.975 4.5 6.439 6.439 0 0 1 -2.67 2.7 7.965 7.965 0 0 1 -3.795.9zm.09-2.25a4.854 4.854 0 0 0 1.62-.285 4.03 4.03 0 0 0 1.485-.945 4.815 4.815 0 0 0 1.1-1.77 7.857 7.857 0 0 0 .42-2.76 7.959 7.959 0 0 0 -.435-2.82 5.019 5.019 0 0 0 -1.14-1.83 4.36 4.36 0 0 0 -1.575-1 5 5 0 0 0 -1.71-.315 4.772 4.772 0 0 0 -1.59.285 4.262 4.262 0 0 0 -1.5.93 4.58 4.58 0 0 0 -1.11 1.74 7.73 7.73 0 0 0 -.42 2.745 8.35 8.35 0 0 0 .42 2.835 5 5 0 0 0 1.125 1.86 4.272 4.272 0 0 0 1.575 1.02 5.081 5.081 0 0 0 1.735.31zm11.13 1.86v-20.94h2.73v20.94zm7.29 0v-20.97h2.73v11.94a15.568 15.568 0 0 0 2.265-1.425 21.58 21.58 0 0 0 2.025-1.725 16.909 16.909 0 0 0 1.6-1.77 10.694 10.694 0 0 0 1.035-1.56h3.18a15.14 15.14 0 0 1 -1.425 2.235 14.632 14.632 0 0 1 -1.935 2.085 15.2 15.2 0 0 1 -2.28 1.68 8.75 8.75 0 0 1 -2.43 1.02v.33a5.9 5.9 0 0 1 2.685.345 5.9 5.9 0 0 1 2.025 1.35 12.061 12.061 0 0 1 1.59 2.025q.72 1.14 1.38 2.4l.9 2.04h-3.06l-.66-1.47a22.572 22.572 0 0 0 -1.575-2.745 6.92 6.92 0 0 0 -1.89-1.92 4.653 4.653 0 0 0 -2.625-.7h-.81v6.835zm21.99.39a10.762 10.762 0 0 1 -2.865-.345 6.2 6.2 0 0 1 -2.1-.99 4.334 4.334 0 0 1 -1.3-1.56 4.594 4.594 0 0 1 -.45-2.055l2.31-.57a2.791 2.791 0 0 0 .51 1.785 3.358 3.358 0 0 0 1.575 1.125 7.026 7.026 0 0 0 2.475.39 5.319 5.319 0 0 0 2.775-.6 1.851 1.851 0 0 0 .975-1.65 1.629 1.629 0 0 0 -.54-1.3 3.892 3.892 0 0 0 -1.5-.735q-.96-.27-2.22-.54-1.11-.24-2.19-.54a8.875 8.875 0 0 1 -1.965-.8 4.126 4.126 0 0 1 -1.425-1.29 3.529 3.529 0 0 1 -.54-2.025 3.989 3.989 0 0 1 .75-2.43 4.873 4.873 0 0 1 2.13-1.59 8.626 8.626 0 0 1 3.3-.57 8.231 8.231 0 0 1 3.255.585 5.055 5.055 0 0 1 2.145 1.65 4.675 4.675 0 0 1 .87 2.535l-2.37.57a3.091 3.091 0 0 0 -.525-1.725 2.933 2.933 0 0 0 -1.4-1.05 5.851 5.851 0 0 0 -2.1-.345 4.528 4.528 0 0 0 -2.5.6 1.875 1.875 0 0 0 -.915 1.65 1.619 1.619 0 0 0 .555 1.29 3.76 3.76 0 0 0 1.5.735q.945.255 2.145.525 1.17.24 2.265.54a8.949 8.949 0 0 1 1.965.78 3.769 3.769 0 0 1 1.38 1.275 3.747 3.747 0 0 1 .51 2.055 3.987 3.987 0 0 1 -.81 2.535 4.906 4.906 0 0 1 -2.25 1.56 10 10 0 0 1 -3.425.525zm24.21 0a7.806 7.806 0 0 1 -3.915-.96 6.691 6.691 0 0 1 -2.655-2.79 9.527 9.527 0 0 1 -.96-4.47 9.047 9.047 0 0 1 1.005-4.485 6.671 6.671 0 0 1 2.685-2.685 7.877 7.877 0 0 1 3.78-.9 7.72 7.72 0 0 1 3.825.945 6.8 6.8 0 0 1 2.685 2.76 9.267 9.267 0 0 1 .99 4.485 9.365 9.365 0 0 1 -.975 4.5 6.439 6.439 0 0 1 -2.67 2.7 7.965 7.965 0 0 1 -3.795.9zm.09-2.25a4.854 4.854 0 0 0 1.62-.285 4.03 4.03 0 0 0 1.485-.945 4.815 4.815 0 0 0 1.095-1.77 7.856 7.856 0 0 0 .42-2.76 7.958 7.958 0 0 0 -.435-2.82 5.019 5.019 0 0 0 -1.14-1.83 4.36 4.36 0 0 0 -1.575-1 5 5 0 0 0 -1.71-.315 4.772 4.772 0 0 0 -1.59.285 4.262 4.262 0 0 0 -1.5.93 4.58 4.58 0 0 0 -1.11 1.74 7.73 7.73 0 0 0 -.42 2.745 8.35 8.35 0 0 0 .42 2.835 5 5 0 0 0 1.125 1.86 4.272 4.272 0 0 0 1.575 1.02 5.081 5.081 0 0 0 1.74.31zm11.13 1.86v-15.51h2.49l-.3 5.1h.48a10.351 10.351 0 0 1 1.155-3.165 4.556 4.556 0 0 1 1.83-1.77 5.4 5.4 0 0 1 2.475-.555 5.03 5.03 0 0 1 2.235.45 4.243 4.243 0 0 1 1.5 1.2 5.845 5.845 0 0 1 .915 1.71 10.146 10.146 0 0 1 .465 2.01 16.219 16.219 0 0 1 .135 2.07v8.46h-2.76v-8.07q0-.66-.075-1.56a7.26 7.26 0 0 0 -.375-1.77 3.488 3.488 0 0 0 -.96-1.47 2.621 2.621 0 0 0 -1.83-.6 3.5 3.5 0 0 0 -2.445.915 6.008 6.008 0 0 0 -1.56 2.43 11.218 11.218 0 0 0 -.645 3.315v6.81zm17.7 0v-20.94h2.73v20.94zm12.63 5.16a10.165 10.165 0 0 1 -2.385-.285 8.231 8.231 0 0 1 -2.16-.84 5.186 5.186 0 0 1 -1.635-1.455l1.38-2.01a4.354 4.354 0 0 0 1.95 1.56 6.857 6.857 0 0 0 2.73.54 5.267 5.267 0 0 0 2.37-.48 4.1 4.1 0 0 0 1.575-1.38 6.223 6.223 0 0 0 .9-2.19 13.539 13.539 0 0 0 .285-2.91l.3-3.03h-.51a10.748 10.748 0 0 1 -1.05 3.51 4.671 4.671 0 0 1 -1.755 1.905 4.763 4.763 0 0 1 -2.385.585 4.625 4.625 0 0 1 -2.505-.615 4.609 4.609 0 0 1 -1.53-1.545 6.8 6.8 0 0 1 -.795-1.98 12.542 12.542 0 0 1 -.3-1.95q-.06-.9-.06-1.41v-6.69h2.73v5.94q0 .51.015 1.245a8.371 8.371 0 0 0 .18 1.53 6.057 6.057 0 0 0 .51 1.485 2.946 2.946 0 0 0 .975 1.125 2.791 2.791 0 0 0 1.62.435 2.89 2.89 0 0 0 1.725-.525 4.2 4.2 0 0 0 1.245-1.485 8.49 8.49 0 0 0 .78-2.25 19.337 19.337 0 0 0 .36-2.82v-4.68h2.73v11.37a22.052 22.052 0 0 1 -.12 2.31 11.962 11.962 0 0 1 -.435 2.19 7.956 7.956 0 0 1 -.855 1.92 5.905 5.905 0 0 1 -1.35 1.515 6.039 6.039 0 0 1 -1.92 1 8.484 8.484 0 0 1 -2.61.365zm9.51-25.8h3.06a21.268 21.268 0 0 1 1.755 4.035 25.4 25.4 0 0 1 .93 4.095 29.03 29.03 0 0 1 .285 4.02 28.919 28.919 0 0 1 -.285 4.035 23.346 23.346 0 0 1 -.945 4.035 23.464 23.464 0 0 1 -1.77 4.02h-3.06a22.985 22.985 0 0 0 1.74-3.6 22.157 22.157 0 0 0 1.1-3.975 24.452 24.452 0 0 0 .375-4.335 24.8 24.8 0 0 0 -.18-2.925 26.566 26.566 0 0 0 -.555-3.075 26.4 26.4 0 0 0 -.975-3.15 25.064 25.064 0 0 0 -1.475-3.18z" fill="#f49f0a" transform="translate(774.831 956.8)"/><path d="m-198.158 0v-46.28h9.7v46.28zm4.895-53.756a7.212 7.212 0 0 1 -4.717-1.335 4.7 4.7 0 0 1 -1.6-3.827 4.7 4.7 0 0 1 1.6-3.827 7.212 7.212 0 0 1 4.717-1.335 7.4 7.4 0 0 1 4.762 1.335 4.642 4.642 0 0 1 1.646 3.827 4.642 4.642 0 0 1 -1.646 3.827 7.4 7.4 0 0 1 -4.763 1.335zm17.711 53.756v-46.28h8.366l-.534 14.952h1.513a28.048 28.048 0 0 1 3.382-9.345 13.554 13.554 0 0 1 5.474-5.162 16.381 16.381 0 0 1 7.342-1.6 15.34 15.34 0 0 1 6.986 1.424 12.442 12.442 0 0 1 4.539 3.827 18.775 18.775 0 0 1 2.67 5.34 31.831 31.831 0 0 1 1.29 6.052 52.572 52.572 0 0 1 .356 5.963v24.829h-9.7v-23.585q0-1.78-.178-4.406a18.958 18.958 0 0 0 -1.068-5.118 10.484 10.484 0 0 0 -2.759-4.227 7.426 7.426 0 0 0 -5.251-1.736 9.786 9.786 0 0 0 -6.809 2.536 15.974 15.974 0 0 0 -4.272 6.764 31.856 31.856 0 0 0 -1.646 9.39v20.382zm50.463-19.313v-8.722h24.389v8.722zm43.877 20.47a15.5 15.5 0 0 1 -6.853-1.469 11.457 11.457 0 0 1 -4.806-4.317 13.2 13.2 0 0 1 -1.78-7.12 12.322 12.322 0 0 1 2.051-7.431 13.933 13.933 0 0 1 5.251-4.361 27.621 27.621 0 0 1 6.942-2.27q3.738-.712 7.209-1.157 3.471-.534 5.473-.979a5.405 5.405 0 0 0 2.893-1.424 3.956 3.956 0 0 0 .89-2.759 7.5 7.5 0 0 0 -.979-3.827 7.121 7.121 0 0 0 -2.893-2.715 10.438 10.438 0 0 0 -4.939-1.023 14.584 14.584 0 0 0 -5.162.935 10.987 10.987 0 0 0 -4.316 2.937 10.674 10.674 0 0 0 -2.448 5.385l-8.722-2.67a18.431 18.431 0 0 1 2.581-6.141 16.713 16.713 0 0 1 4.406-4.494 19.5 19.5 0 0 1 6.047-2.757 28.53 28.53 0 0 1 7.521-.935 23.377 23.377 0 0 1 9.078 1.513 13.566 13.566 0 0 1 5.607 4.183 16.305 16.305 0 0 1 2.892 6.139 31.528 31.528 0 0 1 .846 7.476v9.256q0 2.848.133 6.141t.356 6.542q.223 3.248.489 6.186h-8.811q-.178-2.759-.4-5.7t-.312-5.874h-1.246a23.675 23.675 0 0 1 -3.516 6.319 16.649 16.649 0 0 1 -5.651 4.675 16.924 16.924 0 0 1 -7.832 1.736zm3.382-7.476a11.821 11.821 0 0 0 3.83-.668 15.55 15.55 0 0 0 3.871-2 15.55 15.55 0 0 0 3.516-3.471 21.611 21.611 0 0 0 2.759-5.073v-7.832l2.225.356a9.433 9.433 0 0 1 -3.694 2.047 32.725 32.725 0 0 1 -4.939 1.112q-2.67.4-5.3.89a26.947 26.947 0 0 0 -4.806 1.335 8.285 8.285 0 0 0 -3.471 2.4 6.425 6.425 0 0 0 -1.291 4.228 6.184 6.184 0 0 0 2 4.939 7.8 7.8 0 0 0 5.299 1.737zm32.574-12.994v-8.722h24.386v8.722zm40.583 19.313-12.015-46.28h10.057l8.188 38.27h1.424l9.078-38.27h12.1l9.171 38.27h1.335l8.277-38.27h9.879l-12.193 46.28h-13.35l-8.811-38h-1.067l-8.634 38zm85.707 1.157a27.09 27.09 0 0 1 -9.79-1.647 19.536 19.536 0 0 1 -7.209-4.717 19.7 19.7 0 0 1 -4.405-7.387 30.161 30.161 0 0 1 -1.468-9.745 32.663 32.663 0 0 1 1.468-10.013 23.623 23.623 0 0 1 4.27-7.965 19.078 19.078 0 0 1 6.942-5.251 22.806 22.806 0 0 1 9.479-1.869 22.5 22.5 0 0 1 8.679 1.602 16.524 16.524 0 0 1 6.542 4.85 21.115 21.115 0 0 1 3.961 8.1 37.83 37.83 0 0 1 1.023 11.259l-36.226.266v-6.052l30.349-.267-3.2 3.649a19 19 0 0 0 -.935-8.633 10.425 10.425 0 0 0 -4.049-5.162 11.231 11.231 0 0 0 -6.141-1.691 11.662 11.662 0 0 0 -6.809 2 12.652 12.652 0 0 0 -4.45 5.83 24.285 24.285 0 0 0 -1.558 9.167q0 8.01 3.516 12.059t10.1 4.049a15.115 15.115 0 0 0 4.761-.668 9.32 9.32 0 0 0 3.337-1.869 9.588 9.588 0 0 0 2.137-2.752 15.967 15.967 0 0 0 1.242-3.252l8.544 1.869a21.64 21.64 0 0 1 -2.359 5.83 15.391 15.391 0 0 1 -4.045 4.494 18.737 18.737 0 0 1 -5.874 2.892 27.1 27.1 0 0 1 -7.832 1.024zm50.552 0a27.09 27.09 0 0 1 -9.786-1.646 19.536 19.536 0 0 1 -7.209-4.717 19.7 19.7 0 0 1 -4.405-7.387 30.161 30.161 0 0 1 -1.469-9.745 32.663 32.663 0 0 1 1.469-10.013 23.623 23.623 0 0 1 4.272-7.965 19.078 19.078 0 0 1 6.942-5.251 22.806 22.806 0 0 1 9.479-1.869 22.5 22.5 0 0 1 8.678 1.6 16.524 16.524 0 0 1 6.542 4.85 21.115 21.115 0 0 1 3.96 8.1 37.83 37.83 0 0 1 1.023 11.259l-36.223.267v-6.052l30.349-.267-3.208 3.649a19 19 0 0 0 -.934-8.633 10.425 10.425 0 0 0 -4.049-5.162 11.231 11.231 0 0 0 -6.141-1.691 11.662 11.662 0 0 0 -6.809 2 12.652 12.652 0 0 0 -4.45 5.83 24.285 24.285 0 0 0 -1.558 9.167q0 8.01 3.516 12.059t10.1 4.049a15.115 15.115 0 0 0 4.762-.668 9.32 9.32 0 0 0 3.337-1.869 9.588 9.588 0 0 0 2.136-2.752 15.968 15.968 0 0 0 1.246-3.248l8.544 1.869a21.64 21.64 0 0 1 -2.359 5.83 15.391 15.391 0 0 1 -4.049 4.494 18.737 18.737 0 0 1 -5.874 2.888 27.1 27.1 0 0 1 -7.832 1.024zm29.904-1.157v-62.656h9.61v35.333a43.245 43.245 0 0 0 6.274-4.138 59.331 59.331 0 0 0 5.518-4.94 47.815 47.815 0 0 0 4.406-5.118 30.149 30.149 0 0 0 2.937-4.761h11.125a38.289 38.289 0 0 1 -3.916 6.719 41.923 41.923 0 0 1 -5.518 6.23 36.153 36.153 0 0 1 -6.809 4.984 27.793 27.793 0 0 1 -7.7 2.982v1.065a18.927 18.927 0 0 1 8.633.8 16.731 16.731 0 0 1 6.141 3.961 28.615 28.615 0 0 1 4.494 6.007 77.676 77.676 0 0 1 3.52 7.032l2.581 6.5h-10.769l-1.6-4.45a70.024 70.024 0 0 0 -4.049-7.921 17.274 17.274 0 0 0 -5.029-5.473 12.824 12.824 0 0 0 -7.387-2h-2.852v19.844z" fill="#fafaf8" transform="translate(782.831 829.8)"/></g></svg>