<svg height="640" viewBox="0 0 879 640" width="879" xmlns="http://www.w3.org/2000/svg"><g transform="translate(-326.83 -294.802)"><g fill="#fff" opacity="0" stroke="#707070"><path d="m326.83 294.801h879v640h-879z" stroke="none"/><path d="m327.33 295.301h878v639h-878z" fill="none"/></g><path d="m183 0 5.5 145.394 94.455-119.713-85.208 124.919 153.427-56.028-148.86 64.774 163.686 25.454-165.25-15.93 121.975 98.848-129.175-91.577 41.537 140.859-52.087-138.149-52.087 138.149 41.537-140.859-129.174 91.577 121.974-98.848-165.25 15.93 163.685-25.453-148.859-64.775 153.427 56.028-85.208-124.919 94.455 119.713z" fill="#f49f0a" transform="translate(326.83 303.801)"/><ellipse cx="773.33" cy="803.301" fill="#62a87c" rx="309.5" ry="85.5"/><path d="m8.38 0v-276.54h65.364v276.54zm10.894 0v-54.47h117.739v54.47zm198.187 5.028q-28.073 0-45.252-13.408t-24.931-38.967q-7.751-25.559-7.751-62.431 0-41.062 8.8-66.831t26.4-37.71q17.6-11.942 43.576-11.942 28.492 0 45.881 11.942t25.349 37.081q7.961 25.14 7.961 65.783t-8.8 66.412q-8.8 25.769-26.4 37.919t-44.833 12.152zm.838-46.509a8.141 8.141 0 0 0 6.494-3.352q2.724-3.352 4.4-10.894a125.393 125.393 0 0 0 2.3-20.112q.628-12.57.628-30.587 0-20.112-.628-34.148a160.238 160.238 0 0 0 -2.3-22.626q-1.676-8.59-4.4-12.361t-6.494-3.771q-3.771 0-6.494 3.771t-4.19 12.361a191.89 191.89 0 0 0 -2.1 22.835q-.629 14.246-.629 34.777 0 18.017.629 30.168a146.719 146.719 0 0 0 2.1 19.693q1.466 7.542 4.19 10.894a8.141 8.141 0 0 0 6.495 3.352zm157.544 101.4q-24.3 0-39.805-5.238t-23.045-14.876q-7.542-9.637-7.542-23.045 0-18.436 12.779-28.492t33.73-11.732v-3.352a118.2 118.2 0 0 1 -25.978-5.866q-11.732-4.19-11.732-16.341 0-11.313 10.266-18.227t29.121-9.427v-3.771q-21.788-5.866-34.568-23.045t-12.78-42.319q0-21.788 9.846-38.758a69.919 69.919 0 0 1 28.283-26.816q18.436-9.847 43.995-9.847h79.61v51.533l-54.47-10.475v3.352q23.883 5.447 35.2 16.55t11.313 27.445q0 14.665-8.38 29.12t-25.144 23.888q-16.76 9.428-41.481 9.428-4.19 0-9.637-.21a28.832 28.832 0 0 1 -9.637-1.885q-5.866 2.933-9.218 5.028t-3.352 4.19q0 1.257 1.676 2.3a12.287 12.287 0 0 0 4.819 1.466 56.2 56.2 0 0 0 7.332.419h31.425q10.056 0 22.836.838a81.144 81.144 0 0 1 24.512 5.447 44.331 44.331 0 0 1 19.483 14.88q7.752 10.265 7.752 29.12 0 23.045-12.361 38.339t-34.149 22.835q-21.788 7.542-50.699 7.542zm3.357-58.243q14.246 0 21.578-1.467t10.056-4.19a8.866 8.866 0 0 0 2.724-6.495q0-5.028-2.724-7.542a17.324 17.324 0 0 0 -7.123-3.771 39.15 39.15 0 0 0 -9.009-1.466q-4.609-.21-7.961-.21h-16.76q-11.732 4.609-16.131 7.961t-4.4 7.542q0 4.19 4.818 6.285a38.176 38.176 0 0 0 11.732 2.725q6.91.628 13.2.628zm4.6-109.776q6.7 0 10.266-8.8t3.561-25.14q0-15.922-3.352-25.768t-10.475-9.848q-6.7 0-10.056 9.427t-3.344 25.769a101.929 101.929 0 0 0 1.466 18.646q1.467 7.752 4.609 11.732t7.325 3.982zm167.6 113.128q-28.073 0-45.252-13.408t-24.927-38.967q-7.751-25.559-7.751-62.431 0-41.062 8.8-66.831t26.4-37.71q17.6-11.942 43.576-11.942 28.492 0 45.88 11.942t25.349 37.081q7.961 25.14 7.961 65.783t-8.8 66.412q-8.8 25.769-26.4 37.919t-44.836 12.152zm.838-46.509a8.141 8.141 0 0 0 6.495-3.352q2.724-3.352 4.4-10.894a125.387 125.387 0 0 0 2.3-20.112q.629-12.57.628-30.587 0-20.112-.628-34.148a160.231 160.231 0 0 0 -2.3-22.626q-1.676-8.59-4.4-12.361t-6.495-3.771q-3.771 0-6.495 3.771t-4.19 12.361a191.9 191.9 0 0 0 -2.095 22.835q-.629 14.246-.629 34.777 0 18.017.629 30.168a146.725 146.725 0 0 0 2.095 19.693q1.466 7.542 4.19 10.894a8.141 8.141 0 0 0 6.499 3.352z" fill="#fffadb" transform="translate(463.831 693.8)"/><path d="m-198.158 0v-46.28h9.7v46.28zm4.895-53.756a7.212 7.212 0 0 1 -4.717-1.335 4.7 4.7 0 0 1 -1.6-3.827 4.7 4.7 0 0 1 1.6-3.827 7.212 7.212 0 0 1 4.717-1.335 7.4 7.4 0 0 1 4.762 1.335 4.642 4.642 0 0 1 1.646 3.827 4.642 4.642 0 0 1 -1.646 3.827 7.4 7.4 0 0 1 -4.763 1.335zm17.711 53.756v-46.28h8.366l-.534 14.952h1.513a28.048 28.048 0 0 1 3.382-9.345 13.554 13.554 0 0 1 5.474-5.162 16.381 16.381 0 0 1 7.342-1.6 15.34 15.34 0 0 1 6.986 1.424 12.442 12.442 0 0 1 4.539 3.827 18.775 18.775 0 0 1 2.67 5.34 31.831 31.831 0 0 1 1.29 6.052 52.572 52.572 0 0 1 .356 5.963v24.829h-9.7v-23.585q0-1.78-.178-4.406a18.958 18.958 0 0 0 -1.068-5.118 10.484 10.484 0 0 0 -2.759-4.227 7.426 7.426 0 0 0 -5.251-1.736 9.786 9.786 0 0 0 -6.809 2.536 15.974 15.974 0 0 0 -4.272 6.764 31.856 31.856 0 0 0 -1.646 9.39v20.382zm50.463-19.313v-8.722h24.389v8.722zm43.877 20.47a15.5 15.5 0 0 1 -6.853-1.469 11.457 11.457 0 0 1 -4.806-4.317 13.2 13.2 0 0 1 -1.78-7.12 12.322 12.322 0 0 1 2.051-7.431 13.933 13.933 0 0 1 5.251-4.361 27.621 27.621 0 0 1 6.942-2.27q3.738-.712 7.209-1.157 3.471-.534 5.473-.979a5.405 5.405 0 0 0 2.893-1.424 3.956 3.956 0 0 0 .89-2.759 7.5 7.5 0 0 0 -.979-3.827 7.121 7.121 0 0 0 -2.893-2.715 10.438 10.438 0 0 0 -4.939-1.023 14.584 14.584 0 0 0 -5.162.935 10.987 10.987 0 0 0 -4.316 2.937 10.674 10.674 0 0 0 -2.448 5.385l-8.722-2.67a18.431 18.431 0 0 1 2.581-6.141 16.713 16.713 0 0 1 4.406-4.494 19.5 19.5 0 0 1 6.047-2.757 28.53 28.53 0 0 1 7.521-.935 23.377 23.377 0 0 1 9.078 1.513 13.566 13.566 0 0 1 5.607 4.183 16.305 16.305 0 0 1 2.892 6.139 31.528 31.528 0 0 1 .846 7.476v9.256q0 2.848.133 6.141t.356 6.542q.223 3.248.489 6.186h-8.811q-.178-2.759-.4-5.7t-.312-5.874h-1.246a23.675 23.675 0 0 1 -3.516 6.319 16.649 16.649 0 0 1 -5.651 4.675 16.924 16.924 0 0 1 -7.832 1.736zm3.382-7.476a11.821 11.821 0 0 0 3.83-.668 15.55 15.55 0 0 0 3.871-2 15.55 15.55 0 0 0 3.516-3.471 21.611 21.611 0 0 0 2.759-5.073v-7.832l2.225.356a9.433 9.433 0 0 1 -3.694 2.047 32.725 32.725 0 0 1 -4.939 1.112q-2.67.4-5.3.89a26.947 26.947 0 0 0 -4.806 1.335 8.285 8.285 0 0 0 -3.471 2.4 6.425 6.425 0 0 0 -1.291 4.228 6.184 6.184 0 0 0 2 4.939 7.8 7.8 0 0 0 5.299 1.737zm32.574-12.994v-8.722h24.386v8.722zm40.583 19.313-12.015-46.28h10.057l8.188 38.27h1.424l9.078-38.27h12.1l9.171 38.27h1.335l8.277-38.27h9.879l-12.193 46.28h-13.35l-8.811-38h-1.067l-8.634 38zm85.707 1.157a27.09 27.09 0 0 1 -9.79-1.647 19.536 19.536 0 0 1 -7.209-4.717 19.7 19.7 0 0 1 -4.405-7.387 30.161 30.161 0 0 1 -1.468-9.745 32.663 32.663 0 0 1 1.468-10.013 23.623 23.623 0 0 1 4.27-7.965 19.078 19.078 0 0 1 6.942-5.251 22.806 22.806 0 0 1 9.479-1.869 22.5 22.5 0 0 1 8.679 1.602 16.524 16.524 0 0 1 6.542 4.85 21.115 21.115 0 0 1 3.961 8.1 37.83 37.83 0 0 1 1.023 11.259l-36.226.266v-6.052l30.349-.267-3.2 3.649a19 19 0 0 0 -.935-8.633 10.425 10.425 0 0 0 -4.049-5.162 11.231 11.231 0 0 0 -6.141-1.691 11.662 11.662 0 0 0 -6.809 2 12.652 12.652 0 0 0 -4.45 5.83 24.285 24.285 0 0 0 -1.558 9.167q0 8.01 3.516 12.059t10.1 4.049a15.115 15.115 0 0 0 4.761-.668 9.32 9.32 0 0 0 3.337-1.869 9.588 9.588 0 0 0 2.137-2.752 15.967 15.967 0 0 0 1.242-3.252l8.544 1.869a21.64 21.64 0 0 1 -2.359 5.83 15.391 15.391 0 0 1 -4.045 4.494 18.737 18.737 0 0 1 -5.874 2.892 27.1 27.1 0 0 1 -7.832 1.024zm50.552 0a27.09 27.09 0 0 1 -9.786-1.646 19.536 19.536 0 0 1 -7.209-4.717 19.7 19.7 0 0 1 -4.405-7.387 30.161 30.161 0 0 1 -1.469-9.745 32.663 32.663 0 0 1 1.469-10.013 23.623 23.623 0 0 1 4.272-7.965 19.078 19.078 0 0 1 6.942-5.251 22.806 22.806 0 0 1 9.479-1.869 22.5 22.5 0 0 1 8.678 1.6 16.524 16.524 0 0 1 6.542 4.85 21.115 21.115 0 0 1 3.96 8.1 37.83 37.83 0 0 1 1.023 11.259l-36.223.267v-6.052l30.349-.267-3.208 3.649a19 19 0 0 0 -.934-8.633 10.425 10.425 0 0 0 -4.049-5.162 11.231 11.231 0 0 0 -6.141-1.691 11.662 11.662 0 0 0 -6.809 2 12.652 12.652 0 0 0 -4.45 5.83 24.285 24.285 0 0 0 -1.558 9.167q0 8.01 3.516 12.059t10.1 4.049a15.115 15.115 0 0 0 4.762-.668 9.32 9.32 0 0 0 3.337-1.869 9.588 9.588 0 0 0 2.136-2.752 15.968 15.968 0 0 0 1.246-3.248l8.544 1.869a21.64 21.64 0 0 1 -2.359 5.83 15.391 15.391 0 0 1 -4.049 4.494 18.737 18.737 0 0 1 -5.874 2.888 27.1 27.1 0 0 1 -7.832 1.024zm29.904-1.157v-62.656h9.61v35.333a43.245 43.245 0 0 0 6.274-4.138 59.331 59.331 0 0 0 5.518-4.94 47.815 47.815 0 0 0 4.406-5.118 30.149 30.149 0 0 0 2.937-4.761h11.125a38.289 38.289 0 0 1 -3.916 6.719 41.923 41.923 0 0 1 -5.518 6.23 36.153 36.153 0 0 1 -6.809 4.984 27.793 27.793 0 0 1 -7.7 2.982v1.065a18.927 18.927 0 0 1 8.633.8 16.731 16.731 0 0 1 6.141 3.961 28.615 28.615 0 0 1 4.494 6.007 77.676 77.676 0 0 1 3.52 7.032l2.581 6.5h-10.769l-1.6-4.45a70.024 70.024 0 0 0 -4.049-7.921 17.274 17.274 0 0 0 -5.029-5.473 12.824 12.824 0 0 0 -7.387-2h-2.852v19.844z" fill="#fafaf8" transform="translate(782.831 829.8)"/></g></svg>