<svg width="76" height="78" viewBox="0 0 76 78" fill="none" xmlns="http://www.w3.org/2000/svg">
<path d="M33.5437 0.1875L38.9056 2.88735L36.2058 8.24928L30.8438 5.54943L33.5437 0.1875Z" fill="#D9FAFF"/>
<path d="M12.5946 7.29163L16.6138 11.751L12.1545 15.7702L8.13529 11.3108L12.5946 7.29163Z" fill="#D9FAFF"/>
<path d="M51.1375 51.25L56.4994 53.9498L53.7996 59.3118L48.4376 56.6119L51.1375 51.25Z" fill="#D9FAFF"/>
<path d="M70.3874 40.4062L75.7494 43.1061L73.0495 48.468L67.6876 45.7682L70.3874 40.4062Z" fill="#D9FAFF"/>
<path d="M3.72124 36.0026L8.43423 39.7211L4.71574 44.4341L0.00274658 40.7156L3.72124 36.0026Z" fill="#D9FAFF"/>
<path d="M37.5872 35.2188L41.8305 42.5683H33.344L37.5872 35.2188Z" fill="#D9FAFF"/>
<path d="M36.5872 63.1257L40.8305 70.4752H32.344L36.5872 63.1257Z" fill="#D9FAFF"/>
<path d="M12.1705 69.0272L20.0596 72.1549L13.4064 77.4232L12.1705 69.0272Z" fill="#D9FAFF"/>
<path d="M55.107 28.3936L63.1012 31.242L56.6372 36.741L55.107 28.3936Z" fill="#D9FAFF"/>
<path d="M60.732 8.98731L68.7262 11.8358L62.2622 17.3347L60.732 8.98731Z" fill="#D9FAFF"/>
<path d="M56.7945 68.3311L64.7887 71.1795L58.3247 76.6785L56.7945 68.3311Z" fill="#D9FAFF"/>
<path d="M17.4242 26.0557L25.7682 27.6041L20.2552 34.0561L17.4242 26.0557Z" fill="#D9FAFF"/>
<path d="M38.6069 18.1537L43.368 11.1285L47.0714 18.7643L38.6069 18.1537Z" fill="#D9FAFF"/>
<path d="M18.3868 59.1751L16.2052 50.9738L24.3986 53.1852L18.3868 59.1751Z" fill="#D9FAFF"/>
</svg>
