<svg xmlns="http://www.w3.org/2000/svg" width="17.688" height="13.054" viewBox="0 0 17.688 13.054">
  <g id="icon-desktop" transform="translate(0 -67.065)">
    <path id="XMLID_1672_" d="M17.087,67.065H.6a.6.6,0,0,0-.6.6v8.96a.6.6,0,0,0,.6.6H17.087a.6.6,0,0,0,.6-.6v-8.96A.6.6,0,0,0,17.087,67.065Z" fill="#fff"/>
    <path id="XMLID_1626_" d="M148.874,392.225h-2.041v-.806h-2.788v.806H142a.521.521,0,0,0,0,1.043h6.87a.521.521,0,0,0,0-1.043Z" transform="translate(-136.595 -313.149)" fill="#fff"/>
  </g>
</svg>
