<svg xmlns="http://www.w3.org/2000/svg" width="250" height="46.308" viewBox="0 0 250 46.308">
  <g id="Component_7_2" data-name="Component 7 – 2" transform="translate(0)">
    <path id="Path_5564" data-name="Path 5564" d="M6.582-4.762a3.469,3.469,0,0,1-.235,1.3,2.976,2.976,0,0,1-.661,1.016,2.958,2.958,0,0,1-1.025.661,3.614,3.614,0,0,1-1.331.235H.886V-7.97H3.33a3.584,3.584,0,0,1,1.331.237,3,3,0,0,1,1.025.661,2.952,2.952,0,0,1,.661,1.014A3.469,3.469,0,0,1,6.582-4.762Zm-1.225,0a2.987,2.987,0,0,0-.14-.947,1.963,1.963,0,0,0-.4-.71,1.761,1.761,0,0,0-.639-.446,2.19,2.19,0,0,0-.845-.155H2.083V-2.5H3.33a2.19,2.19,0,0,0,.845-.155,1.761,1.761,0,0,0,.639-.446,1.963,1.963,0,0,0,.4-.71A2.987,2.987,0,0,0,5.358-4.762Zm5.674-2.258v1.779h2.245v.918H11.032v1.815H13.88v.954H9.834V-7.97H13.88v.949Zm11.8,2.258a3.469,3.469,0,0,1-.235,1.3,2.976,2.976,0,0,1-.661,1.016,2.958,2.958,0,0,1-1.025.661,3.614,3.614,0,0,1-1.331.235H17.137V-7.97h2.445a3.584,3.584,0,0,1,1.331.237,3,3,0,0,1,1.025.661A2.952,2.952,0,0,1,22.6-6.058,3.469,3.469,0,0,1,22.834-4.762Zm-1.225,0a2.987,2.987,0,0,0-.14-.947,1.963,1.963,0,0,0-.4-.71,1.761,1.761,0,0,0-.639-.446,2.19,2.19,0,0,0-.845-.155H18.335V-2.5h1.247a2.19,2.19,0,0,0,.845-.155,1.761,1.761,0,0,0,.639-.446,1.963,1.963,0,0,0,.4-.71A2.987,2.987,0,0,0,21.609-4.762Zm5.674,3.208h-1.2V-7.97h1.2Zm8.039-1.513a.238.238,0,0,1,.173.075l.47.51a2.583,2.583,0,0,1-.961.741,3.31,3.31,0,0,1-1.369.257,3.234,3.234,0,0,1-1.284-.244,2.831,2.831,0,0,1-.974-.679,2.972,2.972,0,0,1-.619-1.038,3.9,3.9,0,0,1-.215-1.318,3.668,3.668,0,0,1,.231-1.324,3.044,3.044,0,0,1,.65-1.036,2.942,2.942,0,0,1,1-.677,3.318,3.318,0,0,1,1.287-.242,3.16,3.16,0,0,1,1.244.231,2.965,2.965,0,0,1,.925.6l-.4.555a.362.362,0,0,1-.091.093.258.258,0,0,1-.153.04.293.293,0,0,1-.138-.038q-.071-.038-.155-.093t-.2-.122a1.607,1.607,0,0,0-.257-.122,2.1,2.1,0,0,0-.339-.093,2.345,2.345,0,0,0-.446-.038,1.979,1.979,0,0,0-.788.153,1.711,1.711,0,0,0-.614.444,2.045,2.045,0,0,0-.4.71,2.975,2.975,0,0,0-.142.956,2.81,2.81,0,0,0,.153.963,2.117,2.117,0,0,0,.415.71,1.771,1.771,0,0,0,.617.441,1.906,1.906,0,0,0,.763.153,3.324,3.324,0,0,0,.441-.027,1.874,1.874,0,0,0,.364-.084,1.615,1.615,0,0,0,.315-.149,1.968,1.968,0,0,0,.3-.224.421.421,0,0,1,.093-.064A.225.225,0,0,1,35.323-3.067Zm7.054-.91L41.6-6.111q-.058-.142-.12-.337t-.124-.421q-.058.226-.12.424t-.12.344l-.776,2.125Zm2.107,2.422h-.923a.394.394,0,0,1-.253-.078.483.483,0,0,1-.146-.193l-.479-1.309H40.026l-.479,1.309a.425.425,0,0,1-.138.186.384.384,0,0,1-.253.084h-.932L40.749-7.97h1.216ZM51.206-6.99H49.272v5.435H48.078V-6.99H46.144V-7.97h5.062Zm4.241-.031v1.779h2.245v.918H55.448v1.815H58.3v.954H54.25V-7.97H58.3v.949Zm11.8,2.258a3.469,3.469,0,0,1-.235,1.3,2.976,2.976,0,0,1-.661,1.016,2.958,2.958,0,0,1-1.025.661A3.614,3.614,0,0,1,64-1.555H61.552V-7.97H64a3.584,3.584,0,0,1,1.331.237,3,3,0,0,1,1.025.661,2.952,2.952,0,0,1,.661,1.014A3.469,3.469,0,0,1,67.249-4.762Zm-1.225,0a2.987,2.987,0,0,0-.14-.947,1.963,1.963,0,0,0-.4-.71,1.762,1.762,0,0,0-.639-.446A2.191,2.191,0,0,0,64-7.021H62.75V-2.5H64a2.191,2.191,0,0,0,.845-.155,1.762,1.762,0,0,0,.639-.446,1.963,1.963,0,0,0,.4-.71A2.987,2.987,0,0,0,66.025-4.762ZM79.068-6.99H77.134v5.435H75.941V-6.99H74.006V-7.97h5.062Zm8.949,2.227a3.586,3.586,0,0,1-.233,1.307,3.067,3.067,0,0,1-.659,1.04A2.994,2.994,0,0,1,86.1-1.73a3.469,3.469,0,0,1-1.331.246,3.457,3.457,0,0,1-1.327-.246,3.017,3.017,0,0,1-1.027-.685,3.078,3.078,0,0,1-.663-1.04,3.556,3.556,0,0,1-.235-1.307,3.556,3.556,0,0,1,.235-1.307,3.078,3.078,0,0,1,.663-1.04,3.017,3.017,0,0,1,1.027-.685,3.457,3.457,0,0,1,1.327-.246,3.6,3.6,0,0,1,.918.113,3.224,3.224,0,0,1,.79.319,2.919,2.919,0,0,1,.646.5,3.047,3.047,0,0,1,.486.659,3.229,3.229,0,0,1,.3.79A3.757,3.757,0,0,1,88.017-4.762Zm-1.22,0a2.944,2.944,0,0,0-.142-.947,2.03,2.03,0,0,0-.4-.712,1.729,1.729,0,0,0-.637-.448,2.191,2.191,0,0,0-.845-.155,2.19,2.19,0,0,0-.845.155,1.749,1.749,0,0,0-.639.448,2.012,2.012,0,0,0-.406.712,2.945,2.945,0,0,0-.142.947,2.945,2.945,0,0,0,.142.947,1.989,1.989,0,0,0,.406.71,1.761,1.761,0,0,0,.639.446,2.19,2.19,0,0,0,.845.155,2.191,2.191,0,0,0,.845-.155,1.741,1.741,0,0,0,.637-.446,2.007,2.007,0,0,0,.4-.71A2.944,2.944,0,0,0,86.8-4.762Zm13.235,1.695a.238.238,0,0,1,.173.075l.47.51a2.583,2.583,0,0,1-.961.741,3.31,3.31,0,0,1-1.369.257,3.234,3.234,0,0,1-1.284-.244,2.831,2.831,0,0,1-.974-.679,2.972,2.972,0,0,1-.619-1.038,3.9,3.9,0,0,1-.215-1.318,3.668,3.668,0,0,1,.231-1.324,3.044,3.044,0,0,1,.65-1.036,2.942,2.942,0,0,1,1-.677,3.318,3.318,0,0,1,1.287-.242,3.16,3.16,0,0,1,1.244.231,2.965,2.965,0,0,1,.925.6l-.4.555a.362.362,0,0,1-.091.093.258.258,0,0,1-.153.04.293.293,0,0,1-.138-.038q-.071-.038-.155-.093t-.2-.122a1.607,1.607,0,0,0-.257-.122,2.1,2.1,0,0,0-.339-.093,2.345,2.345,0,0,0-.446-.038,1.979,1.979,0,0,0-.788.153,1.711,1.711,0,0,0-.614.444,2.045,2.045,0,0,0-.4.71,2.975,2.975,0,0,0-.142.956,2.81,2.81,0,0,0,.153.963,2.117,2.117,0,0,0,.415.71,1.771,1.771,0,0,0,.617.441,1.906,1.906,0,0,0,.763.153,3.324,3.324,0,0,0,.441-.027,1.874,1.874,0,0,0,.364-.084,1.615,1.615,0,0,0,.315-.149,1.968,1.968,0,0,0,.3-.224.421.421,0,0,1,.093-.064A.225.225,0,0,1,100.032-3.067Zm9.645-1.695a3.586,3.586,0,0,1-.233,1.307,3.067,3.067,0,0,1-.659,1.04,2.994,2.994,0,0,1-1.025.685,3.469,3.469,0,0,1-1.331.246A3.457,3.457,0,0,1,105.1-1.73a3.017,3.017,0,0,1-1.027-.685,3.078,3.078,0,0,1-.663-1.04,3.556,3.556,0,0,1-.235-1.307,3.556,3.556,0,0,1,.235-1.307,3.078,3.078,0,0,1,.663-1.04,3.017,3.017,0,0,1,1.027-.685,3.457,3.457,0,0,1,1.327-.246,3.6,3.6,0,0,1,.918.113,3.224,3.224,0,0,1,.79.319,2.919,2.919,0,0,1,.646.5,3.048,3.048,0,0,1,.486.659,3.23,3.23,0,0,1,.3.79A3.758,3.758,0,0,1,109.677-4.762Zm-1.22,0a2.945,2.945,0,0,0-.142-.947,2.03,2.03,0,0,0-.4-.712,1.728,1.728,0,0,0-.637-.448,2.19,2.19,0,0,0-.845-.155,2.19,2.19,0,0,0-.845.155,1.749,1.749,0,0,0-.639.448,2.011,2.011,0,0,0-.406.712,2.944,2.944,0,0,0-.142.947,2.944,2.944,0,0,0,.142.947,1.989,1.989,0,0,0,.406.71,1.761,1.761,0,0,0,.639.446,2.191,2.191,0,0,0,.845.155,2.19,2.19,0,0,0,.845-.155,1.741,1.741,0,0,0,.637-.446,2.007,2.007,0,0,0,.4-.71A2.945,2.945,0,0,0,108.457-4.762Zm9.88-3.208v6.415h-.612a.539.539,0,0,1-.237-.047.555.555,0,0,1-.184-.158l-3.35-4.277q.027.293.027.541v3.94h-1.051V-7.97h.626a1.116,1.116,0,0,1,.131.007.315.315,0,0,1,.1.027.32.32,0,0,1,.082.058.923.923,0,0,1,.089.1l3.363,4.295q-.013-.155-.022-.306t-.009-.28v-3.9Zm8.11.981h-1.934v5.435H123.32V-6.99h-1.934V-7.97h5.062Zm4.982,2.072A1.847,1.847,0,0,0,132.018-5a1.136,1.136,0,0,0,.413-.233.935.935,0,0,0,.242-.353,1.22,1.22,0,0,0,.08-.448.911.911,0,0,0-.322-.75,1.539,1.539,0,0,0-.983-.262h-.763v2.13Zm3.07,3.363h-1.078a.473.473,0,0,1-.444-.24L131.63-3.848a.473.473,0,0,0-.166-.164.583.583,0,0,0-.268-.049h-.51v2.507h-1.193V-7.97h1.957a4.068,4.068,0,0,1,1.12.135,2.143,2.143,0,0,1,.768.379,1.484,1.484,0,0,1,.441.583,1.918,1.918,0,0,1,.142.748,1.937,1.937,0,0,1-.1.612,1.771,1.771,0,0,1-.275.524,1.854,1.854,0,0,1-.444.413,2.225,2.225,0,0,1-.6.28,1.166,1.166,0,0,1,.213.158,1.12,1.12,0,0,1,.177.215Zm6.287-2.422-.781-2.134q-.058-.142-.12-.337t-.124-.421q-.058.226-.12.424t-.12.344l-.776,2.125Zm2.107,2.422h-.923a.394.394,0,0,1-.253-.078.483.483,0,0,1-.146-.193l-.479-1.309h-2.658l-.479,1.309a.425.425,0,0,1-.138.186.384.384,0,0,1-.253.084h-.932l2.524-6.415h1.216Zm7.081-1.513a.238.238,0,0,1,.173.075l.47.51a2.583,2.583,0,0,1-.961.741,3.31,3.31,0,0,1-1.369.257A3.234,3.234,0,0,1,147-1.728a2.831,2.831,0,0,1-.974-.679,2.972,2.972,0,0,1-.619-1.038,3.9,3.9,0,0,1-.215-1.318,3.668,3.668,0,0,1,.231-1.324,3.043,3.043,0,0,1,.65-1.036,2.942,2.942,0,0,1,1-.677,3.318,3.318,0,0,1,1.287-.242,3.16,3.16,0,0,1,1.245.231,2.965,2.965,0,0,1,.925.6l-.4.555a.362.362,0,0,1-.091.093.258.258,0,0,1-.153.04.293.293,0,0,1-.138-.038q-.071-.038-.155-.093t-.2-.122a1.606,1.606,0,0,0-.257-.122,2.1,2.1,0,0,0-.339-.093,2.345,2.345,0,0,0-.446-.038,1.979,1.979,0,0,0-.788.153,1.711,1.711,0,0,0-.614.444,2.045,2.045,0,0,0-.4.71,2.974,2.974,0,0,0-.142.956,2.81,2.81,0,0,0,.153.963,2.117,2.117,0,0,0,.415.71,1.771,1.771,0,0,0,.617.441,1.906,1.906,0,0,0,.763.153,3.324,3.324,0,0,0,.441-.027,1.874,1.874,0,0,0,.364-.084,1.616,1.616,0,0,0,.315-.149,1.969,1.969,0,0,0,.3-.224.421.421,0,0,1,.093-.064A.225.225,0,0,1,149.975-3.067Zm8.146-3.922h-1.934v5.435h-1.193V-6.99h-1.934V-7.97h5.062Zm8.949,2.227a3.586,3.586,0,0,1-.233,1.307,3.067,3.067,0,0,1-.659,1.04,2.994,2.994,0,0,1-1.025.685,3.469,3.469,0,0,1-1.331.246A3.457,3.457,0,0,1,162.5-1.73a3.017,3.017,0,0,1-1.027-.685,3.078,3.078,0,0,1-.663-1.04,3.556,3.556,0,0,1-.235-1.307,3.556,3.556,0,0,1,.235-1.307,3.078,3.078,0,0,1,.663-1.04,3.017,3.017,0,0,1,1.027-.685,3.457,3.457,0,0,1,1.327-.246,3.6,3.6,0,0,1,.918.113,3.225,3.225,0,0,1,.79.319,2.92,2.92,0,0,1,.646.5,3.048,3.048,0,0,1,.486.659,3.228,3.228,0,0,1,.3.79A3.757,3.757,0,0,1,167.07-4.762Zm-1.22,0a2.944,2.944,0,0,0-.142-.947,2.03,2.03,0,0,0-.4-.712,1.729,1.729,0,0,0-.637-.448,2.191,2.191,0,0,0-.845-.155,2.19,2.19,0,0,0-.845.155,1.749,1.749,0,0,0-.639.448,2.011,2.011,0,0,0-.406.712,2.945,2.945,0,0,0-.142.947,2.945,2.945,0,0,0,.142.947,1.988,1.988,0,0,0,.406.71,1.762,1.762,0,0,0,.639.446,2.19,2.19,0,0,0,.845.155,2.191,2.191,0,0,0,.845-.155,1.741,1.741,0,0,0,.637-.446,2.007,2.007,0,0,0,.4-.71A2.944,2.944,0,0,0,165.85-4.762Zm6.411-.155A1.847,1.847,0,0,0,172.848-5a1.136,1.136,0,0,0,.413-.233.935.935,0,0,0,.242-.353,1.22,1.22,0,0,0,.08-.448.911.911,0,0,0-.322-.75,1.539,1.539,0,0,0-.983-.262h-.763v2.13Zm3.07,3.363h-1.078a.473.473,0,0,1-.444-.24L172.46-3.848a.474.474,0,0,0-.166-.164.583.583,0,0,0-.268-.049h-.51v2.507h-1.193V-7.97h1.957a4.068,4.068,0,0,1,1.12.135,2.143,2.143,0,0,1,.768.379,1.484,1.484,0,0,1,.441.583,1.919,1.919,0,0,1,.142.748,1.937,1.937,0,0,1-.1.612,1.772,1.772,0,0,1-.275.524,1.854,1.854,0,0,1-.444.413,2.225,2.225,0,0,1-.6.28,1.167,1.167,0,0,1,.213.158,1.12,1.12,0,0,1,.177.215ZM186-6.8a.412.412,0,0,1-.113.135.252.252,0,0,1-.149.042.383.383,0,0,1-.2-.069q-.109-.069-.26-.153A2.138,2.138,0,0,0,184.925-7a1.482,1.482,0,0,0-.477-.069,1.424,1.424,0,0,0-.435.06.913.913,0,0,0-.313.166.665.665,0,0,0-.189.255.837.837,0,0,0-.062.326.567.567,0,0,0,.126.377,1.056,1.056,0,0,0,.335.257,3.108,3.108,0,0,0,.475.191q.266.084.546.18a5.141,5.141,0,0,1,.546.222,1.884,1.884,0,0,1,.475.319,1.448,1.448,0,0,1,.335.473,1.641,1.641,0,0,1,.126.679,2.212,2.212,0,0,1-.149.814,1.878,1.878,0,0,1-.435.661,2.048,2.048,0,0,1-.7.444,2.573,2.573,0,0,1-.945.162,3.047,3.047,0,0,1-.6-.06,3.176,3.176,0,0,1-.57-.171,3.054,3.054,0,0,1-.512-.266,2.471,2.471,0,0,1-.426-.346l.351-.572a.374.374,0,0,1,.115-.1.291.291,0,0,1,.151-.042.423.423,0,0,1,.24.091q.129.091.306.2a2.409,2.409,0,0,0,.415.2,1.6,1.6,0,0,0,.57.091,1.17,1.17,0,0,0,.79-.242.868.868,0,0,0,.28-.694.645.645,0,0,0-.126-.413,1.021,1.021,0,0,0-.335-.268,2.5,2.5,0,0,0-.475-.184q-.266-.075-.541-.164a4.667,4.667,0,0,1-.541-.213,1.753,1.753,0,0,1-.475-.324,1.474,1.474,0,0,1-.335-.5,1.9,1.9,0,0,1-.126-.739,1.749,1.749,0,0,1,.14-.683,1.764,1.764,0,0,1,.406-.59,1.989,1.989,0,0,1,.657-.413,2.412,2.412,0,0,1,.9-.155,2.993,2.993,0,0,1,1.047.177,2.364,2.364,0,0,1,.816.5Zm6.234,4.286a1.576,1.576,0,0,0,.619-.115,1.269,1.269,0,0,0,.459-.324,1.433,1.433,0,0,0,.286-.506,2.082,2.082,0,0,0,.1-.665V-7.97h1.193v3.842a2.962,2.962,0,0,1-.184,1.058,2.408,2.408,0,0,1-.528.839,2.4,2.4,0,0,1-.836.55,2.959,2.959,0,0,1-1.109.2,2.972,2.972,0,0,1-1.114-.2,2.4,2.4,0,0,1-.836-.55,2.408,2.408,0,0,1-.528-.839,2.962,2.962,0,0,1-.184-1.058V-7.97h1.193v3.838a2.083,2.083,0,0,0,.1.665,1.437,1.437,0,0,0,.288.508,1.277,1.277,0,0,0,.461.326A1.576,1.576,0,0,0,192.234-2.517Zm10.612-.55a.238.238,0,0,1,.173.075l.47.51a2.583,2.583,0,0,1-.961.741,3.31,3.31,0,0,1-1.369.257,3.234,3.234,0,0,1-1.284-.244,2.831,2.831,0,0,1-.974-.679,2.972,2.972,0,0,1-.619-1.038,3.9,3.9,0,0,1-.215-1.318,3.668,3.668,0,0,1,.231-1.324,3.044,3.044,0,0,1,.65-1.036,2.942,2.942,0,0,1,1-.677,3.318,3.318,0,0,1,1.287-.242,3.16,3.16,0,0,1,1.244.231,2.965,2.965,0,0,1,.925.6l-.4.555a.362.362,0,0,1-.091.093.258.258,0,0,1-.153.04.293.293,0,0,1-.138-.038q-.071-.038-.155-.093t-.2-.122a1.607,1.607,0,0,0-.257-.122,2.1,2.1,0,0,0-.339-.093,2.345,2.345,0,0,0-.446-.038,1.979,1.979,0,0,0-.788.153,1.711,1.711,0,0,0-.614.444,2.045,2.045,0,0,0-.4.71,2.975,2.975,0,0,0-.142.956,2.811,2.811,0,0,0,.153.963,2.117,2.117,0,0,0,.415.71,1.771,1.771,0,0,0,.617.441,1.906,1.906,0,0,0,.763.153,3.324,3.324,0,0,0,.441-.027,1.874,1.874,0,0,0,.364-.084,1.615,1.615,0,0,0,.315-.149,1.968,1.968,0,0,0,.3-.224.421.421,0,0,1,.093-.064A.225.225,0,0,1,202.847-3.067Zm7.933,0a.238.238,0,0,1,.173.075l.47.51a2.583,2.583,0,0,1-.961.741,3.31,3.31,0,0,1-1.369.257,3.234,3.234,0,0,1-1.284-.244,2.831,2.831,0,0,1-.974-.679,2.972,2.972,0,0,1-.619-1.038A3.9,3.9,0,0,1,206-4.762a3.668,3.668,0,0,1,.231-1.324,3.044,3.044,0,0,1,.65-1.036,2.941,2.941,0,0,1,1-.677,3.318,3.318,0,0,1,1.287-.242,3.16,3.16,0,0,1,1.244.231,2.965,2.965,0,0,1,.925.6l-.4.555a.362.362,0,0,1-.091.093.258.258,0,0,1-.153.04.293.293,0,0,1-.138-.038q-.071-.038-.155-.093t-.2-.122a1.607,1.607,0,0,0-.257-.122,2.1,2.1,0,0,0-.339-.093,2.345,2.345,0,0,0-.446-.038,1.979,1.979,0,0,0-.787.153,1.711,1.711,0,0,0-.614.444,2.045,2.045,0,0,0-.4.71,2.975,2.975,0,0,0-.142.956,2.81,2.81,0,0,0,.153.963,2.116,2.116,0,0,0,.415.71,1.771,1.771,0,0,0,.617.441,1.906,1.906,0,0,0,.763.153,3.324,3.324,0,0,0,.441-.027,1.873,1.873,0,0,0,.364-.084,1.615,1.615,0,0,0,.315-.149,1.968,1.968,0,0,0,.3-.224.42.42,0,0,1,.093-.064A.225.225,0,0,1,210.78-3.067Zm4.863-3.953v1.779h2.245v.918h-2.245v1.815h2.848v.954h-4.046V-7.97h4.046v.949Zm9.521.217a.412.412,0,0,1-.113.135.252.252,0,0,1-.149.042.383.383,0,0,1-.2-.069q-.109-.069-.26-.153A2.137,2.137,0,0,0,224.088-7a1.482,1.482,0,0,0-.477-.069,1.424,1.424,0,0,0-.435.06.913.913,0,0,0-.313.166.665.665,0,0,0-.189.255.837.837,0,0,0-.062.326.567.567,0,0,0,.126.377,1.056,1.056,0,0,0,.335.257,3.108,3.108,0,0,0,.475.191q.266.084.546.18a5.14,5.14,0,0,1,.546.222,1.884,1.884,0,0,1,.475.319,1.448,1.448,0,0,1,.335.473,1.641,1.641,0,0,1,.126.679,2.211,2.211,0,0,1-.149.814,1.878,1.878,0,0,1-.435.661,2.048,2.048,0,0,1-.7.444,2.573,2.573,0,0,1-.945.162,3.047,3.047,0,0,1-.6-.06,3.176,3.176,0,0,1-.57-.171,3.054,3.054,0,0,1-.512-.266,2.472,2.472,0,0,1-.426-.346l.351-.572A.374.374,0,0,1,221.7-3a.291.291,0,0,1,.151-.042.423.423,0,0,1,.24.091q.129.091.306.2a2.41,2.41,0,0,0,.415.2,1.6,1.6,0,0,0,.57.091,1.17,1.17,0,0,0,.79-.242.868.868,0,0,0,.28-.694.645.645,0,0,0-.126-.413,1.021,1.021,0,0,0-.335-.268,2.5,2.5,0,0,0-.475-.184q-.266-.075-.541-.164a4.667,4.667,0,0,1-.541-.213,1.754,1.754,0,0,1-.475-.324,1.474,1.474,0,0,1-.335-.5A1.9,1.9,0,0,1,221.5-6.2a1.748,1.748,0,0,1,.14-.683,1.764,1.764,0,0,1,.406-.59,1.989,1.989,0,0,1,.657-.413,2.411,2.411,0,0,1,.9-.155,2.993,2.993,0,0,1,1.047.177,2.363,2.363,0,0,1,.816.5Zm7.068,0a.412.412,0,0,1-.113.135.252.252,0,0,1-.149.042.383.383,0,0,1-.2-.069q-.109-.069-.26-.153A2.138,2.138,0,0,0,231.155-7a1.483,1.483,0,0,0-.477-.069,1.424,1.424,0,0,0-.435.06.913.913,0,0,0-.313.166.665.665,0,0,0-.189.255.838.838,0,0,0-.062.326.567.567,0,0,0,.126.377,1.056,1.056,0,0,0,.335.257,3.109,3.109,0,0,0,.475.191q.266.084.546.18a5.141,5.141,0,0,1,.546.222,1.883,1.883,0,0,1,.475.319,1.448,1.448,0,0,1,.335.473,1.641,1.641,0,0,1,.126.679,2.212,2.212,0,0,1-.149.814,1.878,1.878,0,0,1-.435.661,2.048,2.048,0,0,1-.7.444,2.573,2.573,0,0,1-.945.162,3.047,3.047,0,0,1-.6-.06,3.176,3.176,0,0,1-.57-.171,3.054,3.054,0,0,1-.512-.266,2.471,2.471,0,0,1-.426-.346l.35-.572a.374.374,0,0,1,.115-.1.291.291,0,0,1,.151-.042.423.423,0,0,1,.24.091q.129.091.306.2a2.409,2.409,0,0,0,.415.2,1.6,1.6,0,0,0,.57.091,1.17,1.17,0,0,0,.79-.242.868.868,0,0,0,.28-.694.645.645,0,0,0-.126-.413,1.021,1.021,0,0,0-.335-.268,2.5,2.5,0,0,0-.475-.184q-.266-.075-.541-.164a4.667,4.667,0,0,1-.541-.213,1.753,1.753,0,0,1-.475-.324,1.473,1.473,0,0,1-.335-.5,1.9,1.9,0,0,1-.126-.739,1.749,1.749,0,0,1,.14-.683,1.764,1.764,0,0,1,.406-.59,1.989,1.989,0,0,1,.657-.413,2.411,2.411,0,0,1,.9-.155,2.993,2.993,0,0,1,1.047.177,2.364,2.364,0,0,1,.816.5Z" transform="translate(15.099 47.791)" fill="#fff"/>
    <g id="Group_541" data-name="Group 541">
      <g id="Group_533" data-name="Group 533" transform="translate(16.043 8.622)">
        <path id="Path_2348" data-name="Path 2348" d="M2185.809-1486.887h-1.437l-.038.064a9.89,9.89,0,0,1-2.742,2.977,8.793,8.793,0,0,1-2.424.857l-.076.012-.734,2.036h1.737l-3.412,9.34-.046.183a3.676,3.676,0,0,0-.172,1.574c.29,1.6,2.5,1.925,3.073,1.925a8.289,8.289,0,0,0,4.84-1.8l.026-.023.36-.982-.218.037a27.179,27.179,0,0,1-3.136.347c-.54,0-1.153-.2-1.224-.651a2.362,2.362,0,0,1,.13-.932l3.355-9.021h4.393l.757-2.049H2184.4Z" transform="translate(-2085.014 1491.365)" fill="#fff"/>
        <path id="Path_2349" data-name="Path 2349" d="M2103.866-1475.609l-.046.162h.933l1.673-4.58h-1.259a11.545,11.545,0,0,0-6.193,1.787l.521-1.442h-6.009l-.278.762.119.045c.083.03,2,.771,1.139,3.256v0l-3.9,10.636h6.026l.279-.763-.121-.044c-.082-.03-2-.76-1.139-3.253l1.187-3.223c.739-1.9,1.383-4.281,3.683-4.819l.033-.007a4.231,4.231,0,0,1,3.156.164A1.345,1.345,0,0,1,2103.866-1475.609Z" transform="translate(-2043.742 1488.056)" fill="#fff"/>
        <path id="Path_2350" data-name="Path 2350" d="M2157.407-1480.072a10.538,10.538,0,0,0-7.13,2.379,9.765,9.765,0,0,0-3.288,4.723,6.454,6.454,0,0,0,.969,6.319,6.458,6.458,0,0,0,4.883,2.082,10.522,10.522,0,0,0,6.38-1.9l.031-.024.368-1.03-.235.059a23.5,23.5,0,0,1-5.121.566c-1.459,0-2.582-.415-3.116-1.351-.583-1.02-.327-2.464.22-4.077h10l.031-.088a11.554,11.554,0,0,0,.7-3.749,3.558,3.558,0,0,0-.594-2.115A4.788,4.788,0,0,0,2157.407-1480.072Zm-.589,2.623a2.129,2.129,0,0,1,1.84.719,2.63,2.63,0,0,1,.19,2.093h-6.392A5.5,5.5,0,0,1,2156.818-1477.449Z" transform="translate(-2070.661 1488.078)" fill="#fff"/>
        <path id="Path_2351" data-name="Path 2351" d="M2129.654-1474.472c-.01-.018-.024-.036-.035-.055l-4.167-6.9,4.782-3.561a9.811,9.811,0,0,1,3.318-1.314l.074-.013.3-.8h-5.367l-5.856,4.36,4.649-12.686H2118.2l-.279.762.12.044.056.013c.665.13,3.407.649,4.1,1.863a1.606,1.606,0,0,1,.1,1.379l-.009.026-6.939,18.938h6.548l.234-.641.039-.127-.127-.042a2.878,2.878,0,0,1-1.622-1.309,2.446,2.446,0,0,1-.028-1.931l1.289-3.518h.106l4.481,7.5.036.068h.263v.005h5.049l.235-.641.039-.127-.126-.042C2131.577-1473.286,2130.108-1473.63,2129.654-1474.472Z" transform="translate(-2055.653 1495.491)" fill="#fff"/>
        <path id="Path_2352" data-name="Path 2352" d="M2028.249-1476.846l5.464-14.917a5.262,5.262,0,0,1,4.55-2.955l.278-.814h-8.852l-11.774,14.216-3.252-14.219h-2.787v0h-3.191l-.222.654a3,3,0,0,1,1.764,4.03h.007l-4.672,12.9h0a7.378,7.378,0,0,1-4.907,4.607l-.256.748h4.444v0h2.281l5.168-14.265,2.59,11.123h2.778l10.677-12.475-4.479,12.386-1.227,3.231h2.62l0,0H2030l.254-.748A3.272,3.272,0,0,1,2028.249-1476.846Z" transform="translate(-2000.398 1495.537)" fill="#fff"/>
        <path id="Path_2353" data-name="Path 2353" d="M2071.639-1480.029l-5.947-.006-1.709,4.33h1l.043-.051c1.2-2.557,3.284-2.182,5.906-2.182,1.488,0,2.072.975,1.921,1.462-.078.25-.263.684-.437,1.122-.219.5-.938.836-1.936.836-6.463,0-8.67,1.756-9.813,5.782-.54,1.9.063,4.122,3.855,4.122a11.28,11.28,0,0,0,4.436-1.292l.578.913h5.435l.307-.779-.129-.046c-.088-.031-2.148-.789-1.195-3.331l2.406-6.538.1-.321a2.732,2.732,0,0,0,.17-1.74C2076.409-1478.411,2075.482-1479.957,2071.639-1480.029Zm-2.27,7.631a15.393,15.393,0,0,0,2.039-.157c-.253.6-.429,1.318-1.047,2.676a5.55,5.55,0,0,1-4.1,2.267c-1.314,0-2.514-.43-2.082-1.729C2064.789-1471.163,2065.187-1472.416,2069.37-1472.4Z" transform="translate(-2029.285 1488.06)" fill="#fff"/>
      </g>
      <g id="Group_539" data-name="Group 539" transform="translate(121.751 8.672)">
        <g id="Group_534" data-name="Group 534" transform="translate(20.922 7.98)">
          <path id="Path_2354" data-name="Path 2354" d="M2261.139-1473.8a9.254,9.254,0,0,1-.91,3.449,10.051,10.051,0,0,1-2.212,3.006,10.568,10.568,0,0,1-3.23,2.078,10.245,10.245,0,0,1-3.948.751,7.646,7.646,0,0,1-3.606-.8,5.4,5.4,0,0,1-2.312-2.263,6.109,6.109,0,0,1-.669-3.316,8.828,8.828,0,0,1,1.584-4.492,10.466,10.466,0,0,1,3.778-3.378,10.346,10.346,0,0,1,4.964-1.255,7.464,7.464,0,0,1,3.708.858,5.33,5.33,0,0,1,2.239,2.29A5.986,5.986,0,0,1,2261.139-1473.8Zm-4.212-.874a2.872,2.872,0,0,0-.615-2.1,2.474,2.474,0,0,0-2.035-.7,4.015,4.015,0,0,0-2.409.894,7.522,7.522,0,0,0-1.82,2.1,12.41,12.41,0,0,0-1.146,2.511,8.314,8.314,0,0,0-.442,2.161,2.827,2.827,0,0,0,.608,2.025,2.28,2.28,0,0,0,1.919.73,4.329,4.329,0,0,0,2.514-.883,7.23,7.23,0,0,0,1.864-2.091,11.344,11.344,0,0,0,1.138-2.534A8.82,8.82,0,0,0,2256.926-1474.676Z" transform="translate(-2244.238 1480.027)" fill="#fff"/>
        </g>
        <g id="Group_535" data-name="Group 535" transform="translate(81.428 7.98)">
          <path id="Path_2355" data-name="Path 2355" d="M2377.649-1473.8a9.253,9.253,0,0,1-.909,3.449,10.051,10.051,0,0,1-2.212,3.006,10.579,10.579,0,0,1-3.23,2.078,10.247,10.247,0,0,1-3.948.751,7.643,7.643,0,0,1-3.606-.8,5.4,5.4,0,0,1-2.312-2.263,6.112,6.112,0,0,1-.669-3.316,8.843,8.843,0,0,1,1.584-4.492,10.473,10.473,0,0,1,3.779-3.378,10.343,10.343,0,0,1,4.963-1.255,7.466,7.466,0,0,1,3.709.858,5.33,5.33,0,0,1,2.239,2.29A5.988,5.988,0,0,1,2377.649-1473.8Zm-4.211-.874a2.876,2.876,0,0,0-.615-2.1,2.475,2.475,0,0,0-2.035-.7,4.013,4.013,0,0,0-2.408.894,7.5,7.5,0,0,0-1.82,2.1,12.4,12.4,0,0,0-1.146,2.511,8.332,8.332,0,0,0-.442,2.161,2.822,2.822,0,0,0,.609,2.025,2.278,2.278,0,0,0,1.918.73,4.328,4.328,0,0,0,2.514-.883,7.228,7.228,0,0,0,1.864-2.091,11.366,11.366,0,0,0,1.138-2.534A8.846,8.846,0,0,0,2373.438-1474.676Z" transform="translate(-2360.749 1480.027)" fill="#fff"/>
        </g>
        <path id="Path_2356" data-name="Path 2356" d="M2279.772-1474.535a2.453,2.453,0,0,1-.024-1.942l.06-.171h-.018l6.887-18.793h-9.146l-.279.762.12.044.056.013c.665.13,3.407.649,4.1,1.863a1.606,1.606,0,0,1,.1,1.379l-.009.026-6.939,18.938h6.569l.234-.641.04-.127-.127-.041A2.879,2.879,0,0,1,2279.772-1474.535Z" transform="translate(-2237.948 1495.441)" fill="#fff"/>
        <path id="Path_2357" data-name="Path 2357" d="M2225.893-1488.119l2.649-7.284h-7.905l.022.011c-4.366.12-7.63,2.3-8.9,4.375-1.435,2.337-1.044,3.842-.3,5.164a4.846,4.846,0,0,0,.972,1.139l.38.279c.387.281.788.573,1.221.832.823.552,1.74,1.08,2.63,1.592.691.531,3.392,2.113,2.812,4.189-.685,2.452-3.45,3.665-6.95,3.04-4.12-.737-4.481-5.518-4.481-5.518h-1.266l-2.823,7.772h7.966l0,0,.156,0c7.421,0,10.565-2.671,11.738-6.343.824-2.584-1.219-4.639-2.486-5.5-.918-.627-3.488-2.152-4.308-2.574-.89-.565-3.172-1.631-2.209-3.751.818-1.8,3.97-2.672,6.219-2.481,3.8.324,3.57,2.786,3.072,5.061Z" transform="translate(-2203.95 1495.423)" fill="#fff"/>
        <path id="Path_2358" data-name="Path 2358" d="M2328.935-1470.338c-.54,0-1.153-.2-1.224-.652a2.356,2.356,0,0,1,.129-.931l3.355-9.021h4.393l.757-2.049h-4.423l1.413-3.9H2331.9l-.038.064a9.9,9.9,0,0,1-2.743,2.977,8.8,8.8,0,0,1-2.424.857l-.076.012-.734,2.036h1.737l-3.412,9.34-.046.183a3.68,3.68,0,0,0-.172,1.574c.29,1.6,2.5,1.925,3.073,1.925a8.291,8.291,0,0,0,4.84-1.8l.026-.023.359-.982-.218.037A27.171,27.171,0,0,1,2328.935-1470.338Z" transform="translate(-2261.635 1491.315)" fill="#fff"/>
        <path id="Path_2359" data-name="Path 2359" d="M2305.119-1468.7l3.905-10.656h-3.567l-.031.086s-2.994,8.171-3.416,9.328a4.667,4.667,0,0,1-4.09,2.683,1.688,1.688,0,0,1-1.414-.481c-.423-.55-.168-1.509.058-2.356l3.383-9.26h-6.037l-.279.761.12.044c.083.031,2,.771,1.139,3.256l-.011.033-2.323,6.359-.019.068c0,.023-.016.061-.031.114l-.016.057a6.593,6.593,0,0,0-.263,2.117,2.682,2.682,0,0,0,2.18,2.092,6.632,6.632,0,0,0,1.622.17,10.229,10.229,0,0,0,4.393-1.312l.7.941h4.984l.278-.762-.12-.045C2306.18-1465.5,2304.268-1466.231,2305.119-1468.7Z" transform="translate(-2246.376 1487.685)" fill="#fff"/>
        <path id="Path_2360" data-name="Path 2360" d="M2405.647-1479.907a6.635,6.635,0,0,0-1.622-.171,10.231,10.231,0,0,0-4.394,1.312l.343-.941h-6.023l-.28.763.122.043c.082.03,2,.757,1.143,3.239l-3.905,10.656h5.99l.279-.763-.121-.044a2.231,2.231,0,0,1-1.282-2.742c.872-2.379,1.912-5.219,2.147-5.866a4.666,4.666,0,0,1,4.09-2.683,1.687,1.687,0,0,1,1.414.481c.423.55.167,1.509-.058,2.355l-3.384,9.26h6.037l.279-.763-.121-.044c-.082-.03-2.007-.76-1.138-3.255l.008-.022,2.327-6.37.018-.065c.006-.029.021-.081.047-.173a6.608,6.608,0,0,0,.263-2.117A2.683,2.683,0,0,0,2405.647-1479.907Z" transform="translate(-2293.877 1488.031)" fill="#fff"/>
        <path id="Path_2361" data-name="Path 2361" d="M2437.219-1479.3h-4.729l.024.02a6.651,6.651,0,0,0-4.406,1.925,5.25,5.25,0,0,0-1.179,1.852,3.147,3.147,0,0,0,.51,3.359,8.318,8.318,0,0,0,.857.888l1.93,1.487c.567.583.677.846.713,1.224a2.1,2.1,0,0,1-.076.642,3.184,3.184,0,0,1-2.845,1.693,1.9,1.9,0,0,1-2.083-1.936,6.6,6.6,0,0,1,.087-1.495l.1-.752-1.377-.091-2.232,5.672-.081.213h5.383a7.165,7.165,0,0,0,4.093-1.021,6.626,6.626,0,0,0,2.394-3.27,3.292,3.292,0,0,0-.671-3.738,3.887,3.887,0,0,0-.581-.537l-2.481-1.836c-.522-.387-.693-.764-.539-1.185a2.825,2.825,0,0,1,2.367-1.305,2.386,2.386,0,0,1,1.83.561,1.662,1.662,0,0,1,.184,1.3l-.033.53h1.276l.427-1.15,0,0Z" transform="translate(-2308.97 1487.657)" fill="#fff"/>
        <g id="Group_538" data-name="Group 538" transform="translate(72.803 2.795)">
          <g id="Group_537" data-name="Group 537" transform="translate(0 5.529)">
            <g id="Group_536" data-name="Group 536">
              <path id="Path_2362" data-name="Path 2362" d="M2349.2-1468.721l.06-.171h-.01l3.837-10.469h-6.007l-.277.761.119.044a2.274,2.274,0,0,1,1.245,2.9l-4.023,11h6.038l.279-.763-.121-.044C2350.253-1465.5,2348.328-1466.226,2349.2-1468.721Z" transform="translate(-2344.14 1479.361)" fill="#fff"/>
            </g>
          </g>
          <path id="Path_2363" data-name="Path 2363" d="M2359.263-1486.861h-2.249a.444.444,0,0,1-.418-.656l.682-1.869a1.041,1.041,0,0,1,.9-.656h2.248a.444.444,0,0,1,.419.656l-.682,1.869A1.041,1.041,0,0,1,2359.263-1486.861Z" transform="translate(-2350.107 1490.042)" fill="#fff"/>
        </g>
      </g>
      <g id="Group_540" data-name="Group 540">
        <path id="Path_2364" data-name="Path 2364" d="M1981.736-1495.53H1975.2l2.463,1.219c.286.142,2.844,1.143,1.968,4.554l-3.862,10.558h0l-.1.266a10.464,10.464,0,0,1-5.647,5.52l-.239.068-.27.749h13.262l.276-.749-.189-.068c-.129-.047-2.972-1.627-1.616-5.52l.092-.266h-.016l5.985-16.332Z" transform="translate(-1969.506 1504.156)" fill="#cb081b"/>
        <path id="Path_2365" data-name="Path 2365" d="M2002.311-1512.192H1998.8a1.625,1.625,0,0,0-1.4,1.023l-1.064,2.916a.693.693,0,0,0,.653,1.023h3.507a1.625,1.625,0,0,0,1.4-1.023l1.064-2.916A.692.692,0,0,0,2002.311-1512.192Z" transform="translate(-1982.372 1512.192)" fill="#cb081b"/>
      </g>
    </g>
  </g>
</svg>
