<svg height="184" viewBox="0 0 186 184" width="186" xmlns="http://www.w3.org/2000/svg"><path d="m179.222 78.884-12.128-8.3441c-5.069-3.4692-7.64-9.5348-6.588-15.5429l2.536-14.4249c.884-5.045-.778-10.1991-4.452-13.8061-3.673-3.607-8.896-5.2122-13.989-4.3l-14.527 2.5905c-6.077 1.0909-12.241-1.41-15.794-6.408l-8.545-11.94349c-2.965-4.2015-7.8174-6.70501-12.9969-6.70501-5.1794 0-10.0321 2.50351-12.9967 6.70501l-8.4348 11.99799c-3.5069 5.0145-9.6384 7.5578-15.7118 6.5171l-14.5541-2.5086c-5.1015-.8713-10.312.7725-13.9617 4.4047-3.6497 3.6321-5.2801 8.7964-4.3688 13.8377l2.6187 14.3703c1.1027 6.012-1.4254 12.11-6.4777 15.6247l-12.07331 8.4805c-4.24716 2.9326-6.77789 7.7331-6.77789 12.8569s2.53073 9.9247 6.77789 12.8567l12.12841 8.344c5.069 3.47 7.6399 9.535 6.588 15.543l-2.536 14.398c-.8807 5.047.781 10.201 4.4526 13.811 3.6716 3.611 8.892 5.224 13.9881 4.322l14.5266-2.59c6.0773-1.091 12.2416 1.41 15.7945 6.408l8.5726 11.916c2.9646 4.201 7.8173 6.705 12.9967 6.705 5.1795 0 10.0326-2.504 12.9966-6.705l8.435-11.998c3.516-5.019 9.658-7.562 15.739-6.517l14.554 2.509c5.1.874 10.31-.77 13.957-4.404 3.646-3.634 5.269-8.801 4.346-13.839l-2.618-14.37c-1.103-6.012 1.425-12.11 6.477-15.625l12.046-8.453c4.247-2.933 6.778-7.7333 6.778-12.857 0-5.1238-2.531-9.9244-6.778-12.857zm-67.313 21.189 12.515 23.34-.515-.282.407.759-23.621-12.948-7.7638 32.058-7.6535-32.086-23.7311 12.431.4643-.84-.4897.254 12.7041-22.675-32.2253-7.6521 1.0093-.2361-1.059-.2503 32.2233-7.51-12.9849-23.6258.4721.2594-.4152-.7548 24.0639 13.3615 7.7732-32.1765 7.6633 32.1765 23.595-12.5162-.295.5419.242-.1285-12.464 22.9396 32.253 7.651-.902.2088.825.1958z" fill="#fff" fill-rule="evenodd"/></svg>