<svg height="512" viewBox="0 0 512 512" width="512" xmlns="http://www.w3.org/2000/svg"><path d="m491 21-99.117 57.869 99.117 57.721zm0 146.434-99.117-57.868v115.59zm0 30.697-99.117 57.722 99.117 57.869v-115.59zm0 146.288-99.117-57.575v115.59l99.117-58.014zm0 30.99-99.117 57.722 99.117 57.869v-115.59zm-123.574-354.409-99.117 57.869 99.117 57.722zm0 146.434-99.117-57.868v115.59zm0 30.697-99.117 57.722 99.117 57.869v-115.59zm0 146.288-99.117-57.575v115.59zm0 30.99-99.117 57.722 99.117 57.869v-115.59zm-123.736-296.539-99.116-57.87v115.59l99.117-57.721zm0 30.697-99.117 57.868 99.117 57.722zm0 146.287-99.117-57.722v115.59zm0 30.99-99.117 57.576 99.117 58.015v-115.59zm0 146.288-99.117-57.722v115.59l99.117-57.869zm-123.573-354.262-99.117-57.87v115.59l99.117-57.721zm0 30.697-99.117 57.867 99.117 57.722v-115.59zm0 146.287-99.117-57.723v115.59l99.117-57.868zm0 30.99-99.117 57.576 99.117 58.015v-115.59zm0 146.288-99.117-57.722v115.59l99.117-57.869z"/></svg>