<svg height="512" viewBox="0 0 512 512" width="512" xmlns="http://www.w3.org/2000/svg"><path d="m256 21c-31.896 0-57.575 25.678-57.575 57.575v38.481l-27.171-27.172c-22.556-22.554-58.814-22.554-81.37 0s-22.554 58.815 0 81.37l27.173 27.171h-38.482c-31.895 0-57.575 25.678-57.575 57.575s25.68 57.575 57.575 57.575h38.482l-27.172 27.172c-22.555 22.554-22.555 58.814 0 81.369s58.813 22.554 81.369 0l27.171-27.172v38.481c0 31.896 25.679 57.575 57.575 57.575s57.575-25.679 57.575-57.575v-38.481l27.172 27.172c22.556 22.554 58.814 22.554 81.369 0s22.555-58.815 0-81.37l-27.171-27.171h38.48c31.897-0 57.575-25.678 57.575-57.575s-25.678-57.575-57.575-57.575h-38.48l27.17-27.172c22.556-22.554 22.556-58.814 0-81.369s-58.812-22.554-81.367 0l-27.172 27.172v-38.48c0-31.898-25.68-57.576-57.576-57.576zm0 33.047c16.52 0 29.962 13.443 29.962 29.962s-13.442 29.963-29.962 29.963-29.962-13.443-29.962-29.963 13.444-29.962 29.962-29.962zm0 147.903c29.852 0 54.05 24.199 54.05 54.05s-24.198 54.05-54.05 54.05-54.05-24.199-54.05-54.05 24.2-54.05 54.05-54.05zm-171.99 24.087c16.52 0 29.815 13.444 29.815 29.963s-13.296 29.962-29.815 29.962-29.962-13.442-29.962-29.962 13.443-29.963 29.962-29.963zm343.834 0c16.519 0 29.963 13.444 29.963 29.963s-13.444 29.962-29.963 29.962-29.816-13.442-29.816-29.962 13.297-29.963 29.816-29.963zm-171.844 171.992c16.52 0 29.962 13.443 29.962 29.963s-13.442 29.961-29.962 29.961-29.963-13.443-29.963-29.962 13.445-29.963 29.963-29.963z"/></svg>