<svg height="512" viewBox="0 0 512 512" width="512" xmlns="http://www.w3.org/2000/svg"><path d="m256 21c-129.787 0-235 105.213-235 235s105.213 235 235 235 235-105.213 235-235-105.213-235-235-235zm-25.703 44.063v27.024c0 16.57 11.434 29.816 25.703 29.816s25.703-13.245 25.703-29.815v-27.025c85.859 11.447 153.787 79.376 165.235 165.234h-27.025c-16.57 0-29.816 11.434-29.816 25.703s13.245 25.703 29.816 25.703h27.025c-11.448 85.859-79.378 153.787-165.235 165.235v-27.025c0-16.57-11.434-29.816-25.703-29.816s-25.703 13.245-25.703 29.816v27.025c-85.859-11.448-153.787-79.376-165.235-165.235h27.025c16.57 0 29.816-11.434 29.816-25.703s-13.245-25.703-29.816-25.703h-27.025c11.448-85.859 79.376-153.787 165.235-165.235zm-66.535 75.493c-6.158.118-12.035 2.342-16.45 6.756-10.09 10.09-8.632 27.646 3.085 39.363l20.122 20.122c-8.37 14.499-13.219 31.259-13.219 49.203s4.85 34.704 13.219 49.203l-20.122 20.122c-11.717 11.717-13.174 29.273-3.085 39.362s27.646 8.633 39.363-3.084l20.122-20.122c14.5 8.37 31.259 13.22 49.203 13.22s34.704-4.85 49.203-13.22l20.122 20.122c11.717 11.717 29.273 13.174 39.363 3.085s8.632-27.646-3.085-39.363l-20.122-20.122c8.37-14.5 13.22-31.259 13.22-49.203s-4.85-34.704-13.22-49.203l20.122-20.122c11.717-11.717 13.174-29.273 3.085-39.363-4.415-4.414-10.292-6.638-16.45-6.756-7.918-.15-16.322 3.25-22.913 9.84l-20.122 20.123c-14.499-8.37-31.259-13.22-49.203-13.22s-34.704 4.85-49.203 13.22l-20.122-20.122c-6.59-6.591-14.995-9.992-22.912-9.84zm92.238 57.869c31.798 0 57.575 25.777 57.575 57.575s-25.777 57.575-57.575 57.575-57.575-25.777-57.575-57.575 25.777-57.575 57.575-57.575z"/></svg>