<svg height="512" viewBox="0 0 48 48" width="512" xmlns="http://www.w3.org/2000/svg"><path d="m44 4s-10.41-1.799-14 4c-2.672 4.317 1 9 1 9m13-13-13 13m13-13s1.799 10.41-4 14c-4.317 2.672-9-1-9-1m0 0-3 3m3 11-3-3m16 16s-10.41 1.799-14-4c-2.672-4.317 1-9 1-9zm0 0s1.799-10.41-4-14c-4.317-2.672-9 1-9 1zm0 0-13-13zm-26.736-27 3 3m-16-16s10.41-1.799 14 4c2.672 4.317-1 9-1 9zm0 0s-1.8 10.41 4 14c4.316 2.672 9-1 9-1zm0 0 13 13zm13 27 3-3m-16 16s10.41 1.799 14-4c2.672-4.317-1-9-1-9zm0 0s-1.8-10.41 4-14c4.316-2.672 9 1 9 1zm0 0 13-13z" fill="none" stroke="#000" stroke-linecap="round" stroke-linejoin="round" stroke-width="4"/></svg>