<svg height="512" viewBox="0 0 512 512" width="512" xmlns="http://www.w3.org/2000/svg"><path d="m221.575 19.432c-35.133 5.074-67.732 17.97-96.18 36.59l39.428 39.428c16.85 16.85 16.85 43.936 0 60.785s-43.935 16.85-60.785 0l-41.07-40.921c-20.763 28.445-35.414 61.652-41.968 97.674h59.59c23.83 0 43.013 19.183 43.013 43.012s-19.184 43.013-43.013 43.012h-59.59c6.555 36.022 21.206 69.229 41.967 97.674l41.07-40.921c8.426-8.425 19.474-12.695 30.468-12.695 10.996 0 21.893 4.27 30.318 12.695a42.865 42.865 0 0 1 0 60.785l-39.428 39.428c28.448 18.62 61.047 31.516 96.18 36.59v-52.57c0-23.83 19.184-43.013 43.013-43.013s43.012 19.183 43.012 43.012v49.285c32.774-7.212 62.955-21.177 89.16-40.324l-32.408-32.408a42.865 42.865 0 0 1 0-60.785c8.425-8.425 19.322-12.695 30.318-12.695 10.994 0 22.042 4.27 30.467 12.695l30.915 30.915c17.092-26.112 29.15-55.802 34.948-87.668h-42.415c-23.829 0-43.012-19.183-43.012-43.012s19.183-43.012 43.012-43.012h42.415c-5.798-31.866-17.856-61.556-34.948-87.668l-30.915 30.915c-16.85 16.85-43.935 16.85-60.785 0s-16.849-43.935 0-60.785l32.409-32.408c-26.206-19.147-56.387-33.112-89.161-40.324v148.452c0 23.829-19.184 43.012-43.012 43.012s-43.013-19.182-43.013-43.012zm-58.843 236.568h186.387c0 51.47-41.724 93.194-93.194 93.194s-93.193-41.726-93.193-93.194z"/></svg>