<svg height="512" viewBox="0 0 512 512" width="512" xmlns="http://www.w3.org/2000/svg"><path d="m51.11 21c-16.63 0-30.11 12.165-30.11 27.172v415.656c0 15.007 13.48 27.172 30.11 27.172h409.928c16.629 0 29.962-12.165 29.962-27.172v-415.656c0-15.007-13.333-27.172-29.962-27.172h-409.929zm4.993 31.725h74.466v67.269h-74.466zm109.716 0h74.318v67.269h-74.317v-67.269zm106.19 0h74.32v67.269h-74.32zm109.423 0h74.612v67.269h-74.612zm-299.332 101.931h347.947c16.909 0 30.403 12.353 30.403 27.613v147.315c0 15.26-13.494 27.613-30.403 27.613h-347.947c-16.91 0-30.403-12.353-30.403-27.613v-147.315c0-15.26 13.493-27.613 30.403-27.613zm62.716 33.194c-20.368 0-36.866 30.483-36.866 68.15s16.498 68.15 36.866 68.15 36.866-30.483 36.866-68.15-16.498-68.15-36.866-68.15zm111.184 0c-20.368 0-36.865 30.483-36.865 68.15s16.497 68.15 36.865 68.15 36.866-30.483 36.866-68.15-16.498-68.15-36.866-68.15zm111.185 0c-20.368 0-36.866 30.483-36.866 68.15s16.498 68.15 36.866 68.15 36.865-30.483 36.865-68.15-16.497-68.15-36.865-68.15zm-311.082 204.157h74.466v67.122h-74.466zm109.716 0h74.318v67.122h-74.317v-67.122zm106.19 0h74.32v67.122h-74.32zm109.423 0h74.612v67.122h-74.612z"/></svg>