<svg height="512" viewBox="0 0 512 512" width="512" xmlns="http://www.w3.org/2000/svg"><path d="m247.335 24.084-41.86 8.225v138.063l-39.803-5.288v-124.843l-144.672 28.493 6.757 95.175 219.578 41.42v-181.246zm17.33 0v181.244l219.58-41.419 6.755-95.175-144.672-28.493v124.843l-39.95 5.288v-138.063l-41.712-8.225zm-235.586 157.597 3.966 55.52 165.088 45.824v96.644l-160.095-70.206 5.287 73.878 204.01 104.428v-264.963l-218.257-41.125zm454.138 0-218.55 41.272v264.963l204.302-104.576 5.14-73.732-159.8 70.06v-96.644l164.941-45.824 3.966-55.519z"/></svg>