<svg height="512" viewBox="0 0 24 24" width="512" xmlns="http://www.w3.org/2000/svg"><g fill="none" fill-rule="evenodd"><path d="m24 0v24h-24v-24zm-11.406 23.258-.012.002-.071.035-.02.004-.014-.004-.071-.036c-.01-.003-.019 0-.024.006l-.004.01-.017.428.005.02.01.013.104.074.015.004.012-.004.104-.074.012-.016.004-.017-.017-.427c-.002-.01-.009-.017-.016-.018zm.264-.113-.014.002-.184.093-.01.01-.003.011.018.43.005.012.008.008.201.092c.012.004.023 0 .029-.008l.004-.014-.034-.614c-.003-.012-.01-.02-.02-.022zm-.715.002a.023.023 0 0 0 -.027.006l-.006.014-.034.614c0 .012.007.02.017.024l.015-.002.201-.093.01-.008.003-.011.018-.43-.003-.012-.01-.01z"/><path d="m12.707 13.293 3.379 3.379a3.121 3.121 0 0 1 -2.207 5.328h-.201a3.306 3.306 0 0 1 -1.678-.454 3.306 3.306 0 0 1 -1.678.454h-.2a3.121 3.121 0 0 1 -2.208-5.328l3.379-3.38a1 1 0 0 1 1.414 0zm6.173-6.293a3.121 3.121 0 0 1 3.116 2.944l.005.177v.201a3.3 3.3 0 0 1 -.454 1.678c.252.429.41.921.446 1.45l.008.228v.2a3.121 3.121 0 0 1 -5.178 2.349l-.15-.141-3.38-3.379a1 1 0 0 1 -.082-1.32l.083-.094 3.379-3.379a3.121 3.121 0 0 1 2.206-.914zm-13.76 0c.76 0 1.49.276 2.057.773l.15.141 3.38 3.379a1 1 0 0 1 .082 1.32l-.083.094-3.379 3.379a3.122 3.122 0 0 1 -5.323-2.03l-.004-.177v-.201c0-.615.167-1.188.454-1.678a3.3 3.3 0 0 1 -.446-1.45l-.008-.227v-.2a3.121 3.121 0 0 1 3.121-3.123zm5.201-5a3.31 3.31 0 0 1 1.678.454 3.3 3.3 0 0 1 1.45-.446l.228-.008h.2a3.121 3.121 0 0 1 2.349 5.178l-.141.15-3.379 3.38a1 1 0 0 1 -1.32.082l-.094-.083-3.379-3.379a3.121 3.121 0 0 1 2.03-5.323l.178-.005h.201z" fill="#000"/></g></svg>