<svg xmlns="http://www.w3.org/2000/svg" width="9.172" height="14.287" viewBox="0 0 9.172 14.287">
  <g id="icon-mobile" transform="translate(-22.092 -13.5)">
    <path id="Path_1" data-name="Path 1" d="M31.264,25.124V14.418a.918.918,0,0,0-.915-.918H23.007a.918.918,0,0,0-.915.918V25.124Zm-2.09-10.553a.215.215,0,0,1,.283-.115.226.226,0,0,1,.069.046.179.179,0,0,1,.046.069.215.215,0,0,1-.046.238.183.183,0,0,1-.069.046.205.205,0,0,1-.084.017.216.216,0,0,1-.2-.3Zm-3-.133h1.012a.217.217,0,0,1,0,.433H26.172a.217.217,0,0,1,0-.433Z" transform="translate(0)" fill="#fff"/>
    <path id="Path_2" data-name="Path 2" d="M22.092,54.007v1.312a.916.916,0,0,0,.915.918H30.35a.916.916,0,0,0,.915-.918V54.007ZM27.3,55.339H26.056a.217.217,0,0,1,0-.433H27.3a.217.217,0,0,1,0,.433Z" transform="translate(0 -28.45)" fill="#fff"/>
  </g>
</svg>