<svg id="imarket-i" xmlns="http://www.w3.org/2000/svg" width="30" height="22.1" viewBox="0 0 30 22.1">
  <path id="Path_2040" data-name="Path 2040" d="M1921.417,502.622h-15.571a7.209,7.209,0,0,0-6.216,4.557l-4.726,12.985c-.916,2.517.382,4.557,2.9,4.557h6.854l.058-.017a6.379,6.379,0,0,0,3.439-3.372l.062-.163h0l2.352-6.45a2.118,2.118,0,0,0-1.2-2.782l-1.5-.745h7.372l-3.645,9.977h.01l-.056.163a2.6,2.6,0,0,0,.984,3.372l.046.017h.794a7.209,7.209,0,0,0,6.216-4.557l4.726-12.985C1925.232,504.662,1923.934,502.622,1921.417,502.622Zm-4.473,3.927-.648,1.781a.989.989,0,0,1-.853.625h-2.136a.423.423,0,0,1-.4-.625l.648-1.781a.989.989,0,0,1,.853-.625h2.136A.423.423,0,0,1,1916.944,506.549Z" transform="translate(-1894.609 -502.622)" fill="rgba(255,255,255,0.6)"/>
</svg>