<svg enable-background="new 0 0 612 612" viewBox="0 0 612 612" xmlns="http://www.w3.org/2000/svg"><path d="m516.4 382.5h-38.2c-10.6 0-19.1 8.6-19.1 19.1v133.9h-382.6v-382.5h172.1c10.6 0 19.1-8.6 19.1-19.1v-38.3c0-10.6-8.6-19.1-19.1-19.1h-191.2c-31.7 0-57.4 25.7-57.4 57.4v420.8c0 31.6 25.7 57.3 57.4 57.3h420.8c31.7 0 57.4-25.7 57.4-57.4v-153c-.1-10.5-8.7-19.1-19.2-19.1z"/><path d="m583.3 0h-153c-25.5 0-38.3 31-20.3 49l42.7 42.7-291.3 291.2c-11.2 11.2-11.3 29.3-.1 40.6 0 0 0 0 .1.1l27.1 27c11.2 11.2 29.3 11.3 40.6.1 0 0 0 0 .1-.1l291.2-291.3 42.6 42.7c17.9 17.9 49 5.4 49-20.3v-153c0-15.9-12.8-28.7-28.7-28.7z"/></svg>