<svg xmlns="http://www.w3.org/2000/svg" xmlns:xlink="http://www.w3.org/1999/xlink" width="168" height="168" viewBox="0 0 168 168">
  <defs>
    <clipPath id="clip-path">
      <circle id="Ellipse_44" data-name="Ellipse 44" cx="84" cy="84" r="84" transform="translate(738 2362)" fill="#fff" stroke="#707070" stroke-width="1"/>
    </clipPath>
  </defs>
  <g id="Mask_Group_44" data-name="Mask Group 44" transform="translate(-738 -2362)" clip-path="url(#clip-path)">
    <circle id="Ellipse_43" data-name="Ellipse 43" cx="84" cy="84" r="84" transform="translate(738 2362)" fill="#fff"/>
    <g id="Logo_B_-_Standard" data-name="Logo B - Standard" transform="translate(822 2441.5)">
      <g id="Logo_B_-_Standard-2" data-name="Logo B - Standard" transform="translate(-48.851 -31.484)">
        <path id="Path_2411" data-name="Path 2411" d="M166.264,47.291a3.54,3.54,0,0,1,.078.867c0,3.763-4.575,4.423-7.738,4.425-12.305,0-21.495-7.627-21.495-9.959a1.556,1.556,0,0,1,.056-.506l-.926,2.294a4.668,4.668,0,0,0-.379,1.854c0,4.58,10.368,11.5,22.2,11.486,5.235,0,9.215-1.972,9.21-5.518a12.612,12.612,0,0,0-.437-2.562Z" transform="translate(-101.708 -31.595)"/>
        <path id="Path_2412" data-name="Path 2412" d="M130.9,21.487c3.164,0,7.743-.663,7.738-4.425a3.54,3.54,0,0,0-.078-.865l-1.892-8.183c-.437-1.8-.822-2.617-3.985-4.2C130.228,2.566,124.883.5,123.3.5c-1.472,0-1.907,1.909-3.652,1.912C117.961,2.412,116.7,1,115.124,1c-1.517,0-2.509,1.039-3.27,3.166,0,0-2.122,6-2.392,6.871a1.555,1.555,0,0,0-.056.506c0,2.332,9.19,9.969,21.5,9.959m8.231-2.918a12.613,12.613,0,0,1,.437,2.562c0,3.54-3.975,5.513-9.21,5.518-11.832,0-22.2-6.906-22.2-11.486a4.668,4.668,0,0,1,.379-1.854c-4.253.22-9.759.989-9.756,5.842,0,7.961,18.885,17.76,33.826,17.747,11.451,0,14.336-5.194,14.333-9.283,0-3.219-2.782-6.868-7.806-9.046" transform="translate(-74.005 -0.5)" fill="#e00"/>
        <path id="Path_2413" data-name="Path 2413" d="M90.267,186.417c0,3,1.808,4.466,5.106,4.466a13.15,13.15,0,0,0,3.007-.425v-3.485a6.209,6.209,0,0,1-1.942.293c-1.358,0-1.861-.425-1.861-1.7v-5.348h3.935v-3.591H94.576v-4.552l-4.3.931v3.616H87.422v3.6h2.845Zm-13.388.078c0-.931.931-1.383,2.339-1.383a10.9,10.9,0,0,1,2.554.319v1.811a5.467,5.467,0,0,1-2.688.665c-1.381,0-2.205-.534-2.205-1.411m1.312,4.441a6.583,6.583,0,0,0,3.884-1.09v.852h4.256v-9.015c0-3.432-2.314-5.311-6.17-5.311a15.7,15.7,0,0,0-6.575,1.543l1.543,3.166a11.484,11.484,0,0,1,4.256-1.118c1.77,0,2.686.69,2.686,2.1v.68a12.513,12.513,0,0,0-3.191-.4c-3.616,0-5.8,1.517-5.8,4.228,0,2.473,1.967,4.36,5.106,4.36M54.811,190.7h4.575V183.41h7.66V190.7H71.62V172.081H67.05v7.154H59.39v-7.154H54.816ZM37.379,183.65a3.561,3.561,0,0,1,3.7-3.563,4.355,4.355,0,0,1,2.979,1.09V186.1a4.137,4.137,0,0,1-2.979,1.118,3.579,3.579,0,0,1-3.7-3.563m6.729,7.048h4.256V171.15l-4.3.931v5.293a7.264,7.264,0,1,0-3.722,13.509,6.352,6.352,0,0,0,3.776-1.221Zm-19.52-10.8a3.112,3.112,0,0,1,2.951,2.233H21.668a2.93,2.93,0,0,1,2.926-2.233m-7.26,3.776a7.387,7.387,0,0,0,7.66,7.288,8.441,8.441,0,0,0,5.877-2.127l-2.847-2.529a3.808,3.808,0,0,1-2.817,1.062,3.639,3.639,0,0,1-3.459-2.233H31.773v-1.065c0-4.468-3-7.685-7.1-7.685a7.225,7.225,0,0,0-7.334,7.286M9.914,175.99a2.116,2.116,0,1,1,0,4.2H5.392v-4.2ZM.81,190.7H5.392v-6.782H8.874l3.513,6.782h5.106l-4.1-7.447a5.632,5.632,0,0,0,3.513-5.24c0-3.351-2.635-5.93-6.575-5.93H.818Z" transform="translate(-0.81 -127.996)"/>
      </g>
    </g>
  </g>
</svg>
